<svg width="50" height="50" viewBox="0 0 50 50" fill="none" xmlns="http://www.w3.org/2000/svg">
<g clip-path="url(#clip0)">
<path d="M46.8497 41.8505H39.7774C39.3728 41.8505 39.045 42.1785 39.045 42.583C39.045 42.9875 39.3728 43.3154 39.7774 43.3154H46.1173V43.7286L35.4526 45.7539H14.0748L3.41016 43.7286V43.3154H6.32227L6.32569 43.3156L6.32843 43.3154H8.9673L8.96984 43.3156L8.97404 43.3154H17.755L17.7566 43.3155L17.7579 43.3154H20.3746L20.377 43.3156L20.3794 43.3154H29.148L29.1504 43.3156L29.1527 43.3154H37.0576C37.4622 43.3154 37.79 42.9875 37.79 42.583C37.79 42.1785 37.4622 41.8505 37.0576 41.8505H32.3334C33.2081 41.2947 34.0244 40.6437 34.7583 39.9103C35.8175 38.8505 36.6872 37.6519 37.3518 36.356C38.278 36.7332 39.2587 36.9247 40.2754 36.9247C44.5649 36.9247 48.0547 33.4345 48.0547 29.1445C48.0547 24.8549 44.5649 21.3651 40.2754 21.3651C39.8105 21.3651 39.35 21.4072 38.8974 21.4884V21.0693C38.8974 20.1318 38.1347 19.3691 37.1973 19.3691H33.7334C33.3288 19.3691 33.0009 19.6971 33.0009 20.1016C33.0009 20.5061 33.3288 20.834 33.7334 20.834H37.1973C37.327 20.834 37.4326 20.9396 37.4326 21.0693V22.3145H12.0937V21.0693C12.0937 20.9396 12.1992 20.834 12.329 20.834H34C34.4046 20.834 34.7324 20.5061 34.7324 20.1016C34.7324 19.6971 34.4046 19.3691 34 19.3691H12.329C11.3915 19.3691 10.6288 20.1318 10.6288 21.0693V29.9151C10.6288 31.0198 10.758 32.115 11.0098 33.1787C9.81769 32.8233 8.39718 33.1026 7.10108 33.9894C6.7672 34.2178 6.68165 34.6736 6.91007 35.0075C7.13859 35.3412 7.59444 35.4267 7.92823 35.1984C8.77765 34.6172 9.66906 34.3891 10.4062 34.5367L7.73839 38.5282C7.51359 38.8645 7.60401 39.3194 7.94025 39.5441C8.06525 39.6277 8.20675 39.6677 8.3466 39.6677C8.58302 39.6677 8.81505 39.5535 8.95617 39.3422L11.6247 35.3494C11.9015 35.7603 12.0531 36.2979 12.0603 36.9244L12.0604 36.9293C12.0702 37.8969 11.7321 38.9435 11.1086 39.8763C10.7531 40.4082 10.3328 40.8644 9.85685 41.2339C9.52687 41.4923 9.18019 41.6991 8.82501 41.8505H6.51124C6.48478 41.8347 6.45841 41.8188 6.43214 41.801C5.2127 40.9866 5.13555 38.8802 6.25645 37.0057C6.46407 36.6585 6.35099 36.2087 6.00382 36.0011C5.65684 35.7937 5.20694 35.9066 4.99932 36.2538C4.28477 37.4487 3.93575 38.7799 4.01661 40.0025C4.0625 40.6961 4.24405 41.3212 4.54288 41.8504H2.67774C2.27315 41.8504 1.94531 42.1784 1.94531 42.5829V44.3348C1.94531 44.6867 2.19551 44.9887 2.54111 45.0543L13.3116 47.0998V49.2673C13.3116 49.6718 13.6395 49.9998 14.0441 49.9998H35.4824C35.887 49.9998 36.2148 49.6718 36.2148 49.2673V47.1L46.9863 45.0543C47.3319 44.9887 47.5821 44.6866 47.5821 44.3348V42.5829C47.5821 42.1785 47.2542 41.8505 46.8497 41.8505ZM38.8973 29.9149V26.4496C39.3218 26.2318 39.7912 26.1161 40.2754 26.1161C41.9452 26.1161 43.3037 27.4746 43.3037 29.1445C43.3037 30.8143 41.9452 32.1728 40.2754 32.1728C39.7432 32.1728 39.231 32.0346 38.7761 31.7741C38.8559 31.1625 38.8973 30.5419 38.8973 29.9149ZM38.4979 33.2718C39.0548 33.5122 39.6563 33.6377 40.2754 33.6377C42.7529 33.6377 44.7685 31.6221 44.7685 29.1446C44.7685 26.667 42.7529 24.6514 40.2754 24.6514C39.8027 24.6514 39.339 24.7253 38.8974 24.8676V23.0544C38.8974 23.0519 38.8978 23.0494 38.8978 23.0469C38.8978 23.0443 38.8974 23.0419 38.8974 23.0394V22.9818C39.347 22.8815 39.8086 22.83 40.2755 22.83C43.7572 22.83 46.5899 25.6626 46.5899 29.1445C46.5899 32.6268 43.7572 35.4599 40.2755 35.4599C39.4679 35.4599 38.6895 35.3094 37.9529 35.0167C38.1723 34.4489 38.3539 33.866 38.4979 33.2718ZM12.0937 23.7793H37.4326V26.0338V26.0362V29.915C37.4326 33.2991 36.1149 36.4811 33.7225 38.8745C32.397 40.1991 30.7736 41.2256 29.022 41.8505H20.5063C20.2701 41.7665 20.035 41.676 19.8029 41.5771C20.3403 40.7322 20.5451 39.7921 20.3682 38.8962L20.3677 38.8928L20.3667 38.8887C20.1332 37.7232 19.3097 36.7642 18.0472 36.1882C16.8646 35.6487 15.4192 35.509 13.9771 35.7953C13.8459 35.8214 13.7159 35.8512 13.587 35.8839C12.6094 34.0564 12.0937 32.0052 12.0937 29.9151V23.7793ZM12.3267 40.6902C13.0047 39.6757 13.4139 38.5381 13.5053 37.4358C13.751 37.353 14.0037 37.2835 14.2626 37.232C16.1262 36.862 17.9231 37.4228 18.6396 38.4896L13.9325 39.4252C13.5358 39.5041 13.2781 39.8896 13.3569 40.2864C13.4262 40.6349 13.7322 40.8761 14.0745 40.8761C14.1218 40.8761 14.1699 40.8715 14.2181 40.8619L18.9281 39.9255C18.8341 40.4074 18.5656 40.8904 18.1354 41.3341L18.1321 41.3377C17.9527 41.5218 17.7498 41.6932 17.5289 41.8503H11.3706C11.7217 41.5041 12.0419 41.1164 12.3267 40.6902ZM34.75 48.5351H14.7764V47.2187H34.75V48.5351Z" fill="#005493"/>
<path d="M26.6696 14.6436C26.6563 14.652 26.6455 14.6587 26.6377 14.6637C26.645 14.659 26.6558 14.6522 26.6696 14.6436Z" fill="#005493"/>
<path d="M26.6378 14.6631C26.6182 14.6754 26.6207 14.6738 26.6378 14.6631V14.6631Z" fill="#005493"/>
<path d="M28.2554 7.99494C29.2418 7.05744 29.8098 5.75832 29.8098 4.36378C29.8098 2.62794 28.9311 1.03877 27.4592 0.1126C27.117 -0.10283 26.6645 0.000100211 26.4493 0.342484C26.2338 0.684867 26.3368 1.13702 26.6792 1.35245C27.7223 2.0088 28.3451 3.13448 28.3451 4.36368C28.3451 5.59288 27.7223 6.71857 26.6792 7.37492C26.2314 7.65578 26.2314 8.33293 26.6792 8.61477C27.7223 9.27111 28.3451 10.3968 28.3451 11.626C28.3452 12.8553 27.7224 13.9811 26.6793 14.6374C26.6754 14.6398 26.673 14.6413 26.6697 14.6435C26.6728 14.6415 26.6758 14.6397 26.6793 14.6375C26.3369 14.853 26.2339 15.3051 26.4494 15.6475C26.5885 15.8688 26.8265 15.99 27.0699 15.99C27.2032 15.99 27.3381 15.9536 27.4592 15.8774C28.9311 14.9513 29.8098 13.362 29.8098 11.6263C29.8098 10.2316 29.2417 8.93244 28.2554 7.99494ZM27.0613 14.397C27.0786 14.3862 27.0807 14.3848 27.0613 14.397V14.397ZM26.9659 14.4572C26.9819 14.447 26.9967 14.4377 27.0101 14.4293C26.9973 14.4373 26.983 14.4464 26.9659 14.4572Z" fill="#005493"/>
<path d="M32.6138 7.37434C32.2715 7.15891 31.8191 7.26174 31.6038 7.60423C31.3884 7.94651 31.4913 8.39876 31.8337 8.61419C32.8768 9.27054 33.4995 10.3963 33.4995 11.6255C33.4996 12.8545 32.8769 13.9803 31.8338 14.6367C31.4914 14.8521 31.3885 15.3042 31.6039 15.6466C31.7431 15.8679 31.9811 15.9891 32.2244 15.9891C32.3577 15.9891 32.4927 15.9527 32.6138 15.8765C34.0856 14.9504 34.9643 13.3612 34.9643 11.6254C34.9643 9.88968 34.0856 8.30042 32.6138 7.37434Z" fill="#005493"/>
<path d="M21.8828 7.3753C21.5405 7.15987 21.0881 7.2628 20.8729 7.60518C20.6574 7.94756 20.7604 8.39971 21.1027 8.61514C22.1459 9.27149 22.7687 10.3972 22.7687 11.6264C22.7688 12.8556 22.146 13.9814 21.1028 14.6377C20.7605 14.8531 20.6575 15.3053 20.873 15.6477C21.0121 15.869 21.2501 15.9902 21.4935 15.9902C21.6268 15.9902 21.7617 15.9537 21.8828 15.8776C23.3547 14.9515 24.2334 13.3622 24.2334 11.6265C24.2334 9.89063 23.3547 8.30147 21.8828 7.3753Z" fill="#005493"/>
</g>
<defs>
<clipPath id="clip0">
<rect width="50" height="50" fill="white"/>
</clipPath>
</defs>
</svg>
