<svg width="50" height="50" viewBox="0 0 50 50" fill="none" xmlns="http://www.w3.org/2000/svg">
<path d="M40.1326 36.5339L34.4627 34.5327C34.4606 34.4938 34.4602 34.4561 34.4579 34.417C34.4028 33.4819 33.7973 32.679 32.9101 32.3696L30.447 31.5321V29.7627C30.5587 29.6983 30.6688 29.6314 30.7778 29.5633C31.6862 29.894 32.4902 30.025 33.1903 30.025C34.3322 30.025 35.2006 29.6815 35.8058 29.3101C36.4634 28.9062 36.8984 28.4232 37.1478 28.0891C40.9883 28.0388 41.399 24.3274 41.4028 24.2886C41.4227 24.0864 41.3576 23.8851 41.2232 23.7328C41.089 23.5804 40.8974 23.4907 40.6942 23.4851C40.6902 23.485 40.2696 23.4634 39.8587 23.2322C39.3197 22.9291 39.0578 22.4084 39.0578 21.6404V10.9092C39.0578 6.54482 35.7917 2.8876 31.4606 2.40225C31.1731 2.37002 30.9275 2.24014 30.8035 2.05488C29.8913 0.691309 27.9444 0 25.0174 0C21.8883 0 18.4699 1.14531 15.8734 3.06367C13.6397 4.71387 10.9771 7.68623 10.9771 12.4748V21.6403C10.9771 23.3266 9.60908 23.4729 9.34072 23.485C9.1376 23.4906 8.946 23.5804 8.81172 23.7327C8.67734 23.8851 8.6123 24.0863 8.63213 24.2885C8.63594 24.3273 9.04521 28.0396 12.8872 28.089C13.1365 28.4231 13.5716 28.9061 14.2292 29.31C15.2058 29.9094 16.8677 30.4347 19.2579 29.5636C19.3668 29.6315 19.4767 29.6983 19.5881 29.7625V31.532L17.1196 32.3714C16.2379 32.6789 15.6324 33.4818 15.5772 34.4169C15.5752 34.4518 15.5748 34.4854 15.5729 34.5201L9.86748 36.5338C7.70078 37.2985 6.24512 39.356 6.24512 41.6537V49.2676C6.24512 49.6722 6.57295 50 6.97754 50C7.38213 50 7.70996 49.6722 7.70996 49.2676V41.6538C7.70996 41.1483 7.80703 40.6592 7.98506 40.2065L11.705 43.395C12.2373 43.8514 12.5427 44.5152 12.5427 45.2163V49.2559C12.5427 49.6604 12.8705 49.9883 13.2751 49.9883C13.6797 49.9883 14.0075 49.6604 14.0075 49.2559V45.2163C14.0075 44.0871 13.5157 43.0178 12.6583 42.2828L8.77412 38.9536C9.20088 38.4945 9.73818 38.1329 10.355 37.9152L15.5637 36.0769C15.6619 38.3657 16.2281 40.2074 16.7397 41.4339C17.4831 43.2164 19.3788 44.1709 21.2492 43.7039L25.0175 42.7618L28.7856 43.7039C29.1043 43.7835 29.4235 43.8219 29.7378 43.8219C31.268 43.8218 32.6783 42.9127 33.2951 41.434C33.8059 40.2097 34.3708 38.3722 34.4705 36.089L39.6449 37.9152C40.2691 38.1355 40.8121 38.5033 41.2413 38.9703L37.3767 42.2828C36.5192 43.0178 36.0274 44.0871 36.0274 45.2163V49.2559C36.0274 49.6604 36.3553 49.9883 36.7599 49.9883C37.1645 49.9883 37.4923 49.6604 37.4923 49.2559V45.2163C37.4923 44.5151 37.7977 43.8513 38.33 43.395L42.0236 40.2291C42.1961 40.6754 42.29 41.1567 42.29 41.6538V49.2676C42.29 49.6722 42.6179 50 43.0225 50C43.427 50 43.7549 49.6722 43.7549 49.2676V41.6538C43.755 39.3562 42.2993 37.2986 40.1326 36.5339ZM39.7875 24.7975C39.5101 25.574 38.7662 26.7255 36.7998 26.6172C36.5177 26.6041 36.2499 26.7479 36.1159 26.9997C36.0658 27.0904 34.9749 28.9918 32.2519 28.4609C34.1473 26.7781 35.4541 24.4469 35.821 21.8183H36.3686C36.8095 21.8183 37.2256 21.7109 37.5932 21.5221V21.6404C37.5932 23.59 38.7635 24.4754 39.7875 24.7975ZM13.9219 27.0045C13.788 26.7528 13.5194 26.6032 13.2355 26.6171C11.266 26.7251 10.5243 25.5727 10.2475 24.7975C11.2716 24.4755 12.4421 23.5901 12.4421 21.6403V21.522C12.8097 21.7108 13.2258 21.8182 13.6667 21.8182H14.2143C14.5812 24.4468 15.888 26.778 17.7834 28.4608C15.0604 28.9918 13.9696 27.091 13.9219 27.0045ZM15.5733 20.3028C15.5733 19.8982 15.2455 19.5704 14.8409 19.5704C14.4363 19.5704 14.1085 19.8982 14.1085 20.3028C14.1085 20.3196 14.1091 20.3363 14.1092 20.3532H13.6667C12.9914 20.3532 12.4421 19.8039 12.4421 19.1286C12.4421 18.4533 12.9914 17.904 13.6667 17.904H14.0581C15.3253 17.904 16.3562 16.873 16.3562 15.606C16.3562 14.7838 16.7637 14.0966 17.4416 13.5017L17.494 13.5586C17.6385 13.7153 17.8354 13.7947 18.0329 13.7947C18.2103 13.7947 18.3883 13.7307 18.529 13.601C18.7938 13.3569 18.8373 12.9633 18.6504 12.6698C20.0941 11.8609 22.0402 11.229 23.9533 10.608C27.2479 9.53848 30.36 8.52822 31.1776 6.48408C31.3278 6.1085 31.1452 5.68232 30.7695 5.53203C30.3943 5.38193 29.9678 5.56445 29.8175 5.94014C29.2548 7.34687 26.3298 8.29639 23.5011 9.21465C21.4714 9.87354 19.3057 10.5768 17.654 11.5705L15.5655 9.3043C15.2914 9.00674 14.828 8.98789 14.5306 9.26191C14.233 9.53613 14.2142 9.99941 14.4882 10.2969L16.4554 12.4316C15.4943 13.2733 14.8912 14.3005 14.8912 15.6061C14.8912 16.0655 14.5175 16.4393 14.058 16.4393H13.6666C13.2257 16.4393 12.8096 16.5466 12.442 16.7354V12.4747C12.442 8.29707 14.7813 5.6917 16.7438 4.24189C19.0975 2.50293 22.1903 1.46484 25.0174 1.46484C27.3915 1.46484 28.9714 1.95059 29.5864 2.86963C29.9525 3.4168 30.5763 3.77695 31.2976 3.85791C34.8866 4.26016 37.5932 7.2915 37.5932 10.9092V16.7355C37.2255 16.5467 36.8094 16.4393 36.3684 16.4393C36.3684 16.4393 36.1644 16.4393 35.9268 16.4393V15.6061C35.9268 13.1713 34.6349 12.1351 33.2673 11.038C32.739 10.6143 32.1927 10.1761 31.6397 9.61309C31.3564 9.32441 30.8926 9.32041 30.6041 9.60371C30.3154 9.88711 30.3113 10.3508 30.5947 10.6394C31.2084 11.2643 31.8153 11.7511 32.3507 12.1806C33.6672 13.2366 34.4619 13.8741 34.4619 15.606V17.1716H34.4626C34.4629 17.4201 34.5889 17.6624 34.8175 17.7997C34.9917 17.9042 34.9926 17.9048 35.7816 17.9041L36.3686 17.904C37.0438 17.904 37.5932 18.4533 37.5932 19.1286C37.5932 19.8039 37.0438 20.3532 36.3686 20.3532H35.9261C35.9262 20.3364 35.9268 20.3197 35.9268 20.3028C35.9268 19.8982 35.5989 19.5704 35.1943 19.5704C34.7897 19.5704 34.4619 19.8982 34.4619 20.3028C34.4619 25.5104 30.2252 29.7472 25.0176 29.7472C19.8101 29.7472 15.5733 25.5104 15.5733 20.3028ZM31.9434 40.8701C31.4809 41.9789 30.302 42.573 29.1412 42.2828L25.1954 41.2963C25.0787 41.2671 24.9568 41.2671 24.84 41.2963L20.8941 42.2828C19.7331 42.5731 18.5544 41.9791 18.092 40.87C17.5214 39.5021 16.8757 37.287 17.0398 34.5033C17.0601 34.1606 17.2808 33.8668 17.5969 33.7566L19.5884 33.0795V34.3798C19.5884 37.3735 22.024 39.8092 25.0179 39.8092C26.0898 39.8092 27.1267 39.4972 28.0163 38.9067C28.3533 38.6831 28.4452 38.2286 28.2216 37.8915C27.998 37.5545 27.5435 37.4626 27.2063 37.6862C26.5575 38.1168 25.8008 38.3443 25.018 38.3443C22.8318 38.3443 21.0533 36.5658 21.0533 34.3798V30.4664C22.2828 30.9477 23.62 31.2123 25.018 31.2123C26.4159 31.2123 27.753 30.9477 28.9825 30.4664V34.3797C28.9825 34.8342 28.9064 35.2796 28.7564 35.7033C28.6214 36.0846 28.821 36.5031 29.2022 36.6382C29.2831 36.6669 29.3656 36.6805 29.4468 36.6805C29.7483 36.6805 30.0308 36.4928 30.1371 36.1924C30.343 35.6112 30.4474 35.0014 30.4474 34.3797V33.0794L32.4335 33.7548C32.755 33.8668 32.9757 34.1606 32.9959 34.5033C33.1597 37.2869 32.5139 39.5021 31.9434 40.8701Z" fill="#005493"/>
<path d="M27.8873 23.7033C27.6032 23.4154 27.1394 23.4123 26.8515 23.6965C26.5843 23.9602 25.9436 24.2682 25.0176 24.2682C24.0917 24.2682 23.4508 23.9602 23.1835 23.6964C22.8959 23.4125 22.4321 23.4153 22.1478 23.7034C21.8637 23.9913 21.8669 24.455 22.1547 24.7391C22.7855 25.3615 23.8558 25.733 25.0176 25.733C26.1795 25.733 27.2498 25.3615 27.8805 24.739C28.1684 24.4549 28.1714 23.9912 27.8873 23.7033Z" fill="#005493"/>
<path d="M20.3206 17.9932C19.916 17.9932 19.5881 18.321 19.5881 18.7256V19.5085C19.5881 19.9131 19.916 20.2409 20.3206 20.2409C20.7251 20.2409 21.053 19.9131 21.053 19.5085V18.7256C21.053 18.321 20.7251 17.9932 20.3206 17.9932Z" fill="#005493"/>
<path d="M29.7144 17.9932C29.3098 17.9932 28.9819 18.321 28.9819 18.7256V19.5085C28.9819 19.9131 29.3098 20.2409 29.7144 20.2409C30.1189 20.2409 30.4468 19.9131 30.4468 19.5085V18.7256C30.4468 18.321 30.1189 17.9932 29.7144 17.9932Z" fill="#005493"/>
<path d="M21.1037 15.6445H19.5381C19.1335 15.6445 18.8057 15.9724 18.8057 16.377C18.8057 16.7815 19.1335 17.1094 19.5381 17.1094H21.1037C21.5083 17.1094 21.8361 16.7815 21.8361 16.377C21.8361 15.9724 21.5082 15.6445 21.1037 15.6445Z" fill="#005493"/>
<path d="M30.4973 15.6445H28.9316C28.5271 15.6445 28.1992 15.9725 28.1992 16.377C28.1992 16.7815 28.5271 17.1094 28.9316 17.1094H30.4973C30.9019 17.1094 31.2297 16.7815 31.2297 16.377C31.2297 15.9724 30.9019 15.6445 30.4973 15.6445Z" fill="#005493"/>
</svg>
