<svg width="50" height="50" viewBox="0 0 50 50" fill="none" xmlns="http://www.w3.org/2000/svg">
<path d="M10.8055 24.1232L8.71953 28.9888C8.67168 29.1004 8.6505 29.2216 8.65766 29.3428C8.66482 29.464 8.70014 29.5819 8.7608 29.687C8.82146 29.7922 8.9058 29.8818 9.00713 29.9487C9.10846 30.0156 9.22398 30.0579 9.34453 30.0724L13.3695 30.5607L6.54688 42.1232C6.47031 42.2511 6.43195 42.3983 6.43633 42.5473C6.44072 42.6964 6.48765 42.8411 6.57161 42.9643C6.65556 43.0875 6.77302 43.1841 6.91012 43.2427C7.04722 43.3013 7.19823 43.3195 7.34531 43.2951L12.7266 42.4154L14.5625 47.5451C14.6124 47.6848 14.7011 47.8074 14.8181 47.8986C14.9352 47.9897 15.0758 48.0457 15.2234 48.0599H15.2977C15.4335 48.0599 15.567 48.0244 15.685 47.957C15.8029 47.8896 15.9013 47.7926 15.9703 47.6755L18.5625 43.2833L17.2164 42.4888L15.4687 45.4482L13.9758 41.2755C13.9143 41.1039 13.7947 40.9592 13.6378 40.8665C13.4808 40.7737 13.2964 40.7388 13.1164 40.7677L8.74141 41.4833L14.6875 31.406L15.2406 35.9716C15.2551 36.0922 15.2974 36.2077 15.3643 36.309C15.4312 36.4104 15.5208 36.4947 15.626 36.5554C15.7312 36.616 15.849 36.6513 15.9702 36.6585C16.0914 36.6657 16.2126 36.6445 16.3242 36.5966L21.1898 34.5115L21.6031 35.0583L19.6672 38.3396L21.0156 39.1326L22.6211 36.4107L24.375 38.7497C24.4478 38.8468 24.5421 38.9255 24.6506 38.9798C24.7591 39.034 24.8787 39.0623 25 39.0623C25.1213 39.0623 25.2409 39.034 25.3494 38.9798C25.4579 38.9255 25.5522 38.8468 25.625 38.7497L27.3828 36.4099L34.0313 47.6771C34.1003 47.7941 34.1986 47.8911 34.3166 47.9585C34.4345 48.0259 34.568 48.0614 34.7039 48.0615H34.7781C34.9258 48.0473 35.0664 47.9913 35.1834 47.9001C35.3005 47.809 35.3892 47.6863 35.4391 47.5466L37.275 42.4169L42.6562 43.2943C42.8033 43.3187 42.9543 43.3006 43.0914 43.242C43.2285 43.1833 43.346 43.0867 43.43 42.9635C43.5139 42.8403 43.5608 42.6956 43.5652 42.5466C43.5696 42.3975 43.5313 42.2503 43.4547 42.1224L36.632 30.5599L40.657 30.0716C40.7776 30.0572 40.8931 30.0148 40.9944 29.9479C41.0958 29.881 41.1801 29.7914 41.2408 29.6863C41.3014 29.5811 41.3367 29.4632 41.3439 29.342C41.3511 29.2208 41.3299 29.0996 41.282 28.988L39.1961 24.1224L43.4375 20.9372C43.5345 20.8645 43.6133 20.7701 43.6675 20.6616C43.7218 20.5532 43.75 20.4335 43.75 20.3122C43.75 20.191 43.7218 20.0713 43.6675 19.9629C43.6133 19.8544 43.5345 19.76 43.4375 19.6872L39.1937 16.5013L41.2797 11.6357C41.3275 11.5241 41.3487 11.4029 41.3416 11.2817C41.3344 11.1605 41.2991 11.0426 41.2384 10.9374C41.1778 10.8323 41.0934 10.7427 40.9921 10.6758C40.8908 10.6089 40.7752 10.5665 40.6547 10.5521L35.3961 9.91459L34.7602 4.656C34.7457 4.53534 34.7034 4.41972 34.6364 4.31831C34.5695 4.2169 34.4798 4.1325 34.3746 4.07182C34.2693 4.01115 34.1513 3.97586 34.03 3.96877C33.9087 3.96169 33.7874 3.98299 33.6758 4.031L28.8109 6.1185L25.625 1.87475C25.549 1.78259 25.4535 1.70838 25.3455 1.65744C25.2374 1.6065 25.1195 1.58008 25 1.58008C24.8805 1.58008 24.7626 1.6065 24.6545 1.65744C24.5465 1.70838 24.451 1.78259 24.375 1.87475L21.1891 6.1185L16.3281 4.03178C16.2165 3.98377 16.0952 3.96247 15.9739 3.96956C15.8526 3.97664 15.7346 4.01193 15.6294 4.07261C15.5241 4.13328 15.4344 4.21768 15.3675 4.31909C15.3005 4.4205 15.2582 4.53613 15.2437 4.65678L14.6062 9.91537L9.34766 10.5529C9.22711 10.5673 9.11158 10.6097 9.01026 10.6766C8.90893 10.7435 8.82459 10.8331 8.76393 10.9382C8.70326 11.0434 8.66795 11.1613 8.66078 11.2825C8.65362 11.4037 8.67481 11.5249 8.72266 11.6365L10.8086 16.5021L6.5625 19.6872C6.46547 19.76 6.38672 19.8544 6.33248 19.9629C6.27824 20.0713 6.25 20.191 6.25 20.3122C6.25 20.4335 6.27824 20.5532 6.33248 20.6616C6.38672 20.7701 6.46547 20.8645 6.5625 20.9372L10.8055 24.1232ZM41.2602 41.4841L36.8852 40.7685C36.7052 40.7396 36.5207 40.7745 36.3638 40.8673C36.2069 40.96 36.0873 41.1047 36.0258 41.2763L34.5312 45.4482L28.4 35.0576L28.8133 34.5107L33.6789 36.5958C33.7905 36.6437 33.9117 36.6649 34.0329 36.6577C34.1541 36.6506 34.272 36.6152 34.3771 36.5546C34.4823 36.4939 34.5719 36.4096 34.6388 36.3082C34.7057 36.2069 34.748 36.0914 34.7625 35.9708L35.3125 31.406L41.2602 41.4841ZM12.2344 17.3826C12.3744 17.2775 12.4751 17.1284 12.5203 16.9593C12.5655 16.7901 12.5526 16.6107 12.4836 16.4497L10.5656 11.9779L15.3984 11.3927C15.5721 11.3718 15.7336 11.2932 15.8573 11.1695C15.9809 11.0459 16.0595 10.8843 16.0805 10.7107L16.6656 5.87865L21.1375 7.79584C21.2983 7.86492 21.4777 7.87798 21.6469 7.83293C21.816 7.78788 21.9651 7.68733 22.0703 7.5474L25 3.64506L27.9297 7.5474C28.0349 7.68733 28.184 7.78788 28.3531 7.83293C28.5223 7.87798 28.7017 7.86492 28.8625 7.79584L33.3344 5.87865L33.9195 10.7107C33.9405 10.8843 34.0191 11.0459 34.1427 11.1695C34.2664 11.2932 34.4279 11.3718 34.6016 11.3927L39.4344 11.9779L37.5164 16.4497C37.4474 16.6107 37.4345 16.7901 37.4797 16.9593C37.5249 17.1284 37.6256 17.2775 37.7656 17.3826L41.668 20.3122L37.7656 23.2419C37.6256 23.347 37.5249 23.4961 37.4797 23.6652C37.4345 23.8344 37.4474 24.0138 37.5164 24.1747L39.4344 28.6466L34.6031 29.2318C34.4292 29.2524 34.2673 29.3309 34.1433 29.4545C34.0194 29.5782 33.9406 29.74 33.9195 29.9138L33.3344 34.7466L28.8633 32.8287C28.7017 32.7586 28.5212 32.7451 28.351 32.7905C28.1808 32.8359 28.031 32.9374 27.9258 33.0787L25 36.981L22.0711 33.0787C21.9659 32.9374 21.816 32.8359 21.6459 32.7905C21.4757 32.7451 21.2952 32.7586 21.1336 32.8287L16.6625 34.7466L16.0773 29.9138C16.0563 29.74 15.9775 29.5782 15.8535 29.4545C15.7296 29.3309 15.5676 29.2524 15.3938 29.2318L10.5625 28.6466L12.4805 24.1747C12.5495 24.0138 12.5624 23.8344 12.5172 23.6652C12.472 23.4961 12.3713 23.347 12.2313 23.2419L8.325 20.3122L12.2344 17.3826Z" fill="#005493"/>
<path d="M17.8188 27.4936C18.2583 27.933 18.8543 28.1798 19.4758 28.1798C20.0973 28.1798 20.6933 27.933 21.1328 27.4936L32.1813 16.4452C32.399 16.2275 32.5716 15.9691 32.6894 15.6848C32.8072 15.4004 32.8679 15.0956 32.8679 14.7878C32.8679 14.4799 32.8072 14.1751 32.6894 13.8908C32.5716 13.6064 32.399 13.348 32.1813 13.1303C31.7347 12.7044 31.1413 12.4668 30.5242 12.4668C29.9071 12.4668 29.3138 12.7044 28.8672 13.1303L17.8188 24.1796C17.3794 24.6191 17.1326 25.2151 17.1326 25.8366C17.1326 26.4581 17.3794 27.0541 17.8188 27.4936ZM18.9235 25.2842L29.9719 14.2358C30.1206 14.0936 30.3185 14.0142 30.5242 14.0142C30.73 14.0142 30.9279 14.0936 31.0766 14.2358C31.223 14.3823 31.3053 14.581 31.3053 14.7882C31.3053 14.9953 31.223 15.194 31.0766 15.3405L20.0282 26.3889C19.8793 26.531 19.6815 26.6102 19.4758 26.6102C19.2701 26.6102 19.0723 26.531 18.9235 26.3889C18.777 26.2424 18.6947 26.0437 18.6947 25.8366C18.6947 25.6294 18.777 25.4307 18.9235 25.2842Z" fill="#005493"/>
<path d="M27.7617 23.0745C27.3246 23.5116 27.027 24.0684 26.9065 24.6746C26.7859 25.2808 26.8478 25.9091 27.0843 26.4801C27.3209 27.0511 27.7214 27.5392 28.2353 27.8825C28.7492 28.2259 29.3534 28.4092 29.9714 28.4092C30.5895 28.4092 31.1937 28.2259 31.7076 27.8825C32.2215 27.5392 32.622 27.0511 32.8585 26.4801C33.0951 25.9091 33.157 25.2808 33.0364 24.6746C32.9158 24.0684 32.6182 23.5116 32.1812 23.0745C31.5945 22.4896 30.7999 22.1611 29.9714 22.1611C29.143 22.1611 28.3483 22.4896 27.7617 23.0745ZM31.0765 26.3886C30.8209 26.6442 30.4845 26.8032 30.1247 26.8386C29.765 26.874 29.4041 26.7835 29.1035 26.5826C28.803 26.3817 28.5814 26.0828 28.4765 25.7369C28.3717 25.3909 28.39 25.0193 28.5284 24.6854C28.6668 24.3514 28.9167 24.0758 29.2355 23.9054C29.5544 23.7351 29.9224 23.6806 30.277 23.7512C30.6315 23.8218 30.9506 24.0131 31.1799 24.2926C31.4091 24.5721 31.5344 24.9224 31.5343 25.2839C31.5342 25.6983 31.3696 26.0956 31.0765 26.3886Z" fill="#005493"/>
<path d="M20.0288 18.4639C20.7518 18.4635 21.4523 18.2124 22.0109 17.7535C22.5695 17.2945 22.9517 16.656 23.0924 15.9469C23.233 15.2377 23.1235 14.5017 22.7823 13.8643C22.4411 13.2268 21.8895 12.7274 21.2214 12.4511C20.5533 12.1748 19.8101 12.1387 19.1183 12.3489C18.4266 12.5592 17.8291 13.0028 17.4278 13.6041C17.0265 14.2055 16.8461 14.9274 16.9173 15.6469C16.9886 16.3664 17.3071 17.0389 17.8186 17.5498C18.1087 17.8402 18.4532 18.0704 18.8325 18.2273C19.2118 18.3842 19.6183 18.4646 20.0288 18.4639ZM18.9233 14.2357C19.179 13.9802 19.5153 13.8211 19.8751 13.7858C20.2349 13.7504 20.5958 13.8408 20.8963 14.0417C21.1968 14.2426 21.4184 14.5415 21.5233 14.8875C21.6282 15.2334 21.6099 15.605 21.4715 15.939C21.3331 16.2729 21.0831 16.5486 20.7643 16.7189C20.4455 16.8892 20.0774 16.9438 19.7229 16.8732C19.3683 16.8026 19.0492 16.6112 18.82 16.3317C18.5907 16.0523 18.4654 15.7019 18.4655 15.3404C18.4652 15.1352 18.5055 14.9319 18.5841 14.7424C18.6626 14.5528 18.7779 14.3806 18.9233 14.2357Z" fill="#005493"/>
<path d="M18.0598 41.043L18.8518 39.7006L20.1975 40.4946L19.4055 41.837L18.0598 41.043Z" fill="#005493"/>
</svg>
