<svg width="50" height="50" viewBox="0 0 50 50" fill="none" xmlns="http://www.w3.org/2000/svg">
<g clip-path="url(#clip0)">
<path d="M50 10.7292V39.2708C50 41.5683 48.1308 43.4375 45.8333 43.4375H4.16667C1.86917 43.4375 0 41.5683 0 39.2708V26.7708C0 26.3106 0.373125 25.9375 0.833333 25.9375C1.29354 25.9375 1.66667 26.3106 1.66667 26.7708V39.2708C1.66667 40.6493 2.78823 41.7708 4.16667 41.7708H45.8333C47.2118 41.7708 48.3333 40.6493 48.3333 39.2708V10.7292C48.3333 9.35073 47.2118 8.22917 45.8333 8.22917H4.16667C2.78823 8.22917 1.66667 9.35073 1.66667 10.7292V14.0625H44.375C44.8352 14.0625 45.2083 14.4356 45.2083 14.8958C45.2083 15.356 44.8352 15.7292 44.375 15.7292H1.66667V21.1458H44.375C44.8352 21.1458 45.2083 21.519 45.2083 21.9792C45.2083 22.4394 44.8352 22.8125 44.375 22.8125H0.833333C0.373125 22.8125 0 22.4394 0 21.9792V10.7292C0 8.43167 1.86917 6.5625 4.16667 6.5625H45.8333C48.1308 6.5625 50 8.43167 50 10.7292ZM7.60417 30.625H14.5833C15.0435 30.625 15.4167 30.2519 15.4167 29.7917C15.4167 29.3315 15.0435 28.9583 14.5833 28.9583H7.60417C7.14396 28.9583 6.77083 29.3315 6.77083 29.7917C6.77083 30.2519 7.14396 30.625 7.60417 30.625ZM7.60417 35.8333H14.5833C15.0435 35.8333 15.4167 35.4602 15.4167 35C15.4167 34.5398 15.0435 34.1667 14.5833 34.1667H7.60417C7.14396 34.1667 6.77083 34.5398 6.77083 35C6.77083 35.4602 7.14396 35.8333 7.60417 35.8333Z" fill="#005493"/>
<path d="M30.4123 37.1441C29.9563 37.1441 29.5483 37.0601 29.1883 36.8921C28.8283 36.7161 28.5363 36.4921 28.3123 36.2201C28.0883 35.9401 27.9043 35.6081 27.7603 35.2241C27.6163 34.8321 27.5123 34.4401 27.4483 34.0481C27.3923 33.6561 27.3643 33.2401 27.3643 32.8001C27.3643 32.3761 27.3923 31.9681 27.4483 31.5761C27.5043 31.1841 27.6043 30.7961 27.7483 30.4121C27.9003 30.0201 28.0843 29.6841 28.3003 29.4041C28.5243 29.1241 28.8163 28.8961 29.1763 28.7201C29.5443 28.5441 29.9563 28.4561 30.4123 28.4561C30.9803 28.4561 31.4683 28.5841 31.8763 28.8401C32.2923 29.0881 32.6083 29.4281 32.8243 29.8601C33.0483 30.2921 33.2083 30.7521 33.3043 31.2401C33.4083 31.7201 33.4603 32.2401 33.4603 32.8001C33.4603 33.3441 33.4123 33.8561 33.3163 34.3361C33.2203 34.8081 33.0603 35.2641 32.8363 35.7041C32.6203 36.1441 32.3043 36.4961 31.8883 36.7601C31.4723 37.0161 30.9803 37.1441 30.4123 37.1441ZM30.4123 35.7761C30.7163 35.7761 30.9763 35.6921 31.1923 35.5241C31.4083 35.3481 31.5723 35.1121 31.6843 34.8161C31.7963 34.5201 31.8763 34.2081 31.9243 33.8801C31.9803 33.5441 32.0083 33.1841 32.0083 32.8001C32.0083 32.4001 31.9803 32.0361 31.9243 31.7081C31.8763 31.3721 31.7923 31.0601 31.6723 30.7721C31.5603 30.4761 31.3963 30.2441 31.1803 30.0761C30.9643 29.9081 30.7083 29.8241 30.4123 29.8241C30.1083 29.8241 29.8483 29.9081 29.6323 30.0761C29.4163 30.2441 29.2523 30.4801 29.1403 30.7841C29.0283 31.0801 28.9483 31.3921 28.9003 31.7201C28.8523 32.0481 28.8283 32.4081 28.8283 32.8001C28.8283 33.1921 28.8523 33.5561 28.9003 33.8921C28.9563 34.2281 29.0403 34.5441 29.1523 34.8401C29.2643 35.1281 29.4283 35.3561 29.6443 35.5241C29.8603 35.6921 30.1163 35.7761 30.4123 35.7761Z" fill="#005493"/>
<path d="M36.8838 32.7881C36.2118 32.7881 35.7078 32.5721 35.3718 32.1401C35.0438 31.7081 34.8798 31.2001 34.8798 30.6161C34.8798 30.0641 35.0438 29.5681 35.3718 29.1281C35.7078 28.6801 36.2118 28.4561 36.8838 28.4561C37.5558 28.4561 38.0558 28.6721 38.3838 29.1041C38.7198 29.5361 38.8878 30.0401 38.8878 30.6161C38.8878 31.1761 38.7238 31.6801 38.3958 32.1281C38.0678 32.5681 37.5638 32.7881 36.8838 32.7881ZM37.2318 37.1441H35.8878L41.6238 28.4561H42.9678L37.2318 37.1441ZM36.2598 31.3841C36.4038 31.5681 36.6118 31.6601 36.8838 31.6601C37.1558 31.6601 37.3598 31.5641 37.4958 31.3721C37.6398 31.1721 37.7118 30.9201 37.7118 30.6161C37.7118 30.3041 37.6398 30.0561 37.4958 29.8721C37.3598 29.6801 37.1558 29.5841 36.8838 29.5841C36.6118 29.5841 36.4038 29.6841 36.2598 29.8841C36.1238 30.0761 36.0558 30.3201 36.0558 30.6161C36.0558 30.9361 36.1238 31.1921 36.2598 31.3841ZM43.4838 36.4841C43.1558 36.9241 42.6518 37.1441 41.9718 37.1441C41.2918 37.1441 40.7878 36.9281 40.4598 36.4961C40.1318 36.0641 39.9678 35.5561 39.9678 34.9721C39.9678 34.4201 40.1318 33.9241 40.4598 33.4841C40.7958 33.0361 41.2998 32.8121 41.9718 32.8121C42.6438 32.8121 43.1438 33.0281 43.4718 33.4601C43.8078 33.8841 43.9758 34.3881 43.9758 34.9721C43.9758 35.5401 43.8118 36.0441 43.4838 36.4841ZM41.3478 35.7401C41.4918 35.9241 41.6998 36.0161 41.9718 36.0161C42.2438 36.0161 42.4478 35.9201 42.5838 35.7281C42.7278 35.5281 42.7998 35.2761 42.7998 34.9721C42.7998 34.6601 42.7278 34.4121 42.5838 34.2281C42.4398 34.0361 42.2358 33.9401 41.9718 33.9401C41.6998 33.9401 41.4918 34.0361 41.3478 34.2281C41.2118 34.4201 41.1438 34.6681 41.1438 34.9721C41.1438 35.2921 41.2118 35.5481 41.3478 35.7401Z" fill="#005493"/>
</g>
<defs>
<clipPath id="clip0">
<rect width="50" height="50" fill="white"/>
</clipPath>
</defs>
</svg>
