<svg width="50" height="50" viewBox="0 0 50 50" fill="none" xmlns="http://www.w3.org/2000/svg">
<g clip-path="url(#clip0)">
<path d="M15.0602 29.2072C14.8499 29.1329 14.6346 29.0549 14.4201 28.9736V25.5475C14.9594 25.6766 15.2807 25.9492 15.3094 25.9741C15.6037 26.2407 16.0585 26.2207 16.3283 25.9282C16.5996 25.6341 16.581 25.1757 16.2869 24.9044C16.2457 24.8664 15.5535 24.2427 14.4201 24.0727V23.373C14.4201 22.9729 14.0957 22.6484 13.6956 22.6484C13.2955 22.6484 12.9711 22.9729 12.9711 23.373V24.1283C12.8636 24.152 12.7545 24.1792 12.643 24.2129C11.6065 24.5251 10.8321 25.4121 10.6219 26.5277C10.4303 27.5449 10.756 28.5258 11.4723 29.0876C11.8518 29.3853 12.3242 29.6579 12.9712 29.9459V34.2901C12.4115 34.2489 12.0238 34.1123 11.3886 33.6967C11.0537 33.4775 10.6046 33.5715 10.3856 33.9064C10.1666 34.2412 10.2604 34.6902 10.5953 34.9093C11.5215 35.5151 12.1543 35.6958 12.9712 35.7418V36.5253C12.9712 36.9254 13.2956 37.2498 13.6957 37.2498C14.0958 37.2498 14.4202 36.9254 14.4202 36.5253V35.6842C16.0457 35.3652 16.9952 34.0249 17.2056 32.7729C17.4761 31.1632 16.6341 29.7636 15.0602 29.2072ZM12.3664 27.9475C12.0775 27.7208 11.9546 27.2797 12.0457 26.7961C12.1273 26.3628 12.4134 25.8422 12.971 25.6316V28.3339C12.7434 28.2105 12.5377 28.0817 12.3664 27.9475ZM15.7764 32.5327C15.6649 33.196 15.203 33.899 14.42 34.1792V30.5172C14.4722 30.5359 14.5234 30.5545 14.5772 30.5735C15.9161 31.0467 15.8337 32.1927 15.7764 32.5327Z" fill="#005493"/>
<path d="M49.9601 28.2746C49.8354 27.7084 49.4363 27.2511 48.8922 27.0511L46.8185 26.2889C46.4431 26.1509 46.0266 26.3434 45.8885 26.7189C45.7505 27.0945 45.943 27.5109 46.3187 27.6489L48.3924 28.4111C48.5003 28.4508 48.5343 28.5377 48.5448 28.5859C48.5555 28.6342 48.5611 28.7272 48.4797 28.8086L29.9685 47.3199C29.8869 47.4015 29.7938 47.3956 29.7457 47.3851C29.6975 47.3744 29.6106 47.3405 29.571 47.2324L26.9695 40.1544C26.798 39.688 26.4322 39.3223 25.9659 39.1509L18.888 36.5495C18.78 36.5098 18.7461 36.4229 18.7354 36.3747C18.7248 36.3265 18.7191 36.2334 18.8005 36.1521L37.3119 17.6407C37.3934 17.5593 37.4862 17.565 37.5346 17.5756C37.5828 17.5862 37.6696 17.6201 37.7093 17.7281L40.3106 24.8061C40.482 25.2726 40.8479 25.6383 41.3144 25.8097L43.1146 26.4713C43.4901 26.6095 43.9065 26.4168 44.0445 26.0412C44.1825 25.6656 43.99 25.2492 43.6144 25.1112L41.8141 24.4495C41.7476 24.4251 41.6953 24.3728 41.6709 24.3062L39.0695 17.2283C38.8695 16.6842 38.4122 16.2851 37.8461 16.1604C37.2802 16.0357 36.6974 16.2062 36.2873 16.6161L35.5865 17.3169V10.1288C35.5865 9.19668 34.8281 8.43828 33.896 8.43828H26.5167C27.1918 7.12578 26.9809 5.47168 25.8826 4.37353C24.9424 3.4333 23.5789 3.12441 22.3573 3.51504C21.8855 2.14648 20.5855 1.16016 19.0588 1.16016C17.5321 1.16016 16.2322 2.14629 15.7604 3.51465C14.5389 3.12334 13.1768 3.43164 12.2351 4.37344C11.5761 5.03232 11.2132 5.9084 11.2132 6.84033C11.2132 7.40557 11.3476 7.95 11.5997 8.43818H10.9919C10.5918 8.43818 10.2674 8.7626 10.2674 9.16269C10.2674 9.56279 10.5918 9.88721 10.9919 9.88721H16.155V16.7445C15.3534 16.5986 14.5374 16.5231 13.717 16.5231C12.2068 16.5231 10.7857 16.7585 9.42578 17.2114L3.98027 17.2116V10.1287C3.98027 9.99551 4.08857 9.88721 4.22178 9.88721H7.525C7.9251 9.88721 8.24951 9.56279 8.24951 9.16269C8.24951 8.7626 7.9251 8.43818 7.525 8.43818H4.22158C3.28945 8.43818 2.53105 9.19658 2.53105 10.1287V22.2951C2.53105 22.2995 2.53164 22.3038 2.53174 22.3083C0.937988 24.5491 0 27.2871 0 30.24C0 33.1863 0.924024 35.9963 2.67217 38.3662C2.81426 38.5588 3.0335 38.6606 3.25576 38.6606C3.40518 38.6606 3.55586 38.6146 3.68525 38.5191C4.00732 38.2816 4.07578 37.828 3.83818 37.506C2.2751 35.387 1.44893 32.8744 1.44893 30.2399C1.44893 23.4755 6.95225 17.9723 13.7167 17.9723C19.3866 17.9723 24.2607 21.7922 25.6229 27.2803L24.3964 28.5068C24.0295 26.2289 22.9438 24.131 21.26 22.4913C19.2268 20.5116 16.5479 19.4213 13.7167 19.4213C7.75127 19.4213 2.89795 24.2745 2.89795 30.2399C2.89795 36.2054 7.75117 41.0587 13.7167 41.0587C16.1788 41.0587 18.5636 40.216 20.4796 38.6783L22.0325 39.249C19.775 41.331 16.8004 42.5077 13.7167 42.5077C10.9179 42.5077 8.17832 41.5361 6.00273 39.7721C5.69199 39.52 5.23574 39.5677 4.98369 39.8785C4.73164 40.1894 4.7793 40.6455 5.09014 40.8977C7.52295 42.8704 10.5866 43.9568 13.7167 43.9568C17.41 43.9568 20.9628 42.4481 23.5401 39.8031L25.466 40.5109C25.5326 40.5354 25.5849 40.5877 25.6093 40.6543L28.2106 47.7322C28.4106 48.2764 28.868 48.6755 29.434 48.8001C29.5561 48.827 29.6789 48.8401 29.8006 48.8401C30.2434 48.8401 30.6712 48.666 30.9929 48.3444L49.5043 29.8332C49.9142 29.4233 50.0846 28.8407 49.9601 28.2746ZM3.98008 20.5885V18.6608H6.37129C5.50322 19.2135 4.70137 19.8608 3.98008 20.5885ZM34.1374 10.1288V17.2117H21.9626V9.8873H33.8959C34.0291 9.8873 34.1374 9.9957 34.1374 10.1288ZM24.858 5.39814C25.6532 6.19346 25.6532 7.4875 24.8581 8.28262C24.8264 8.31445 24.7647 8.36719 24.6578 8.43828H21.1278C22.1795 6.46006 22.4521 5.49209 22.5226 5.00576C23.2987 4.62627 24.2364 4.77656 24.858 5.39814ZM19.0587 2.60918C20.1834 2.60918 21.0984 3.52422 21.0984 4.64883C21.0984 4.8582 20.9793 5.74609 19.4774 8.43818H18.64C17.1385 5.74678 17.019 4.85859 17.019 4.64883C17.019 3.52422 17.934 2.60918 19.0587 2.60918ZM13.2596 8.28271C12.8743 7.89746 12.6621 7.38525 12.6621 6.84043C12.6621 6.29561 12.8743 5.7834 13.2596 5.39814C13.8822 4.77549 14.8186 4.62607 15.5949 5.00615C15.6654 5.49268 15.9379 6.46016 16.9896 8.43828H13.4598C13.3528 8.36728 13.2914 8.31455 13.2596 8.28271ZM17.6038 9.8873H20.5136V17.2117H18.0049C18.0017 17.2117 17.9986 17.2121 17.9954 17.2122C17.8655 17.1694 17.7349 17.1292 17.6038 17.0903V9.8873ZM22.2897 19.5393C21.8956 19.2229 21.4848 18.9301 21.0603 18.6608H34.1375V18.7659L31.3328 21.5706H24.3362C23.7294 20.8271 23.044 20.1447 22.2897 19.5393ZM25.371 23.0196H29.8837L26.796 26.1073C26.4516 25.0229 25.9711 23.9851 25.371 23.0196ZM13.7168 39.6098C8.55029 39.6098 4.34717 35.4065 4.34717 30.2401C4.34717 25.0737 8.55039 20.8705 13.7168 20.8705C18.6905 20.8705 22.859 24.8752 23.0768 29.8268L17.776 35.1275C17.3661 35.5374 17.1957 36.1201 17.3203 36.6862C17.4449 37.2523 17.8441 37.7097 18.3882 37.9097L18.8449 38.0775C17.3276 39.0722 15.5468 39.6098 13.7168 39.6098Z" fill="#005493"/>
<path d="M35.5254 38.5847C35.6166 38.5847 35.7096 38.5673 35.7992 38.5306C36.1697 38.3792 36.3472 37.9562 36.1957 37.5858L32.0241 27.3803C31.8728 27.01 31.4498 26.8322 31.0792 26.9838C30.7088 27.1352 30.5313 27.5583 30.6828 27.9287L34.8544 38.1341C34.9692 38.4148 35.2398 38.5847 35.5254 38.5847Z" fill="#005493"/>
<path d="M26.9116 30.4015C26.404 30.9091 26.1557 31.6062 26.2126 32.3643C26.2664 33.0815 26.5914 33.7719 27.1276 34.3081C27.6639 34.8445 28.3543 35.1695 29.0715 35.2232C29.1426 35.2286 29.2132 35.2312 29.2832 35.2312C29.9587 35.2312 30.5743 34.9841 31.0343 34.5242C31.5419 34.0165 31.7902 33.3195 31.7334 32.5614C31.6795 31.8441 31.3545 31.1537 30.8183 30.6174C30.282 30.0811 29.5917 29.7561 28.8744 29.7024C28.1157 29.6453 27.4191 29.8939 26.9116 30.4015ZM29.7937 31.6421C30.0848 31.9333 30.2606 32.2983 30.2884 32.6698C30.3132 33.0003 30.2142 33.2951 30.0096 33.4996C29.8051 33.7041 29.5101 33.8028 29.1798 33.7784C28.8084 33.7505 28.4434 33.5748 28.1522 33.2836C27.8611 32.9924 27.6853 32.6275 27.6575 32.2561C27.6327 31.9255 27.7317 31.6308 27.9363 31.4262C28.1202 31.2423 28.3769 31.1438 28.6672 31.1438C28.6998 31.1438 28.7328 31.1451 28.7661 31.1475C29.1376 31.1752 29.5025 31.3509 29.7937 31.6421C29.7936 31.6421 29.7936 31.6421 29.7937 31.6421Z" fill="#005493"/>
<path d="M38.2725 36.0709C38.9482 36.0709 39.5638 35.8238 40.0237 35.3639C41.0412 34.3464 40.9443 32.5938 39.8078 31.4571C39.8078 31.4571 39.8078 31.4571 39.8077 31.4571C38.6712 30.3205 36.9186 30.2237 35.9011 31.2411C34.8836 32.2586 34.9805 34.0111 36.1171 35.1477C36.6534 35.6841 37.3437 36.0091 38.061 36.0628C38.1322 36.0683 38.2027 36.0709 38.2725 36.0709ZM36.9258 32.2658C37.1177 32.0739 37.3779 31.9809 37.6578 31.9809C38.0378 31.9809 38.4539 32.1526 38.7831 32.4818C39.3548 33.0535 39.4517 33.8868 38.999 34.3393C38.7945 34.5437 38.4997 34.6428 38.1693 34.6181C37.7978 34.5902 37.4328 34.4145 37.1417 34.1233C36.5701 33.5516 36.4732 32.7184 36.9258 32.2658Z" fill="#005493"/>
</g>
<defs>
<clipPath id="clip0">
<rect width="50" height="50" fill="white"/>
</clipPath>
</defs>
</svg>
