<svg width="50" height="50" viewBox="0 0 50 50" fill="none" xmlns="http://www.w3.org/2000/svg">
<g clip-path="url(#clip0)">
<path d="M15.8738 8.49508H36.5957C37.0003 8.49508 37.3281 8.16725 37.3281 7.76267C37.3281 7.3581 37.0003 7.03027 36.5957 7.03027H15.8738C15.0112 7.03027 14.3093 7.73211 14.3093 8.59478V13.7232C14.3093 14.5859 15.0112 15.2878 15.8738 15.2878H36.5957C37.0003 15.2878 37.3281 14.9599 37.3281 14.5554C37.3281 14.1508 37.0003 13.823 36.5957 13.823H15.8738C15.8189 13.823 15.7741 13.7782 15.7741 13.7232V8.59478C15.7742 8.5398 15.819 8.49508 15.8738 8.49508Z" fill="#005493"/>
<path d="M15.3799 19.5977H17.1577C17.5622 19.5977 17.8901 19.2698 17.8901 18.8652C17.8901 18.4606 17.5622 18.1328 17.1577 18.1328H15.3799C14.9754 18.1328 14.6475 18.4606 14.6475 18.8652C14.6475 19.2698 14.9754 19.5977 15.3799 19.5977Z" fill="#005493"/>
<path d="M33.3842 18.1328H21.2517C20.8472 18.1328 20.5193 18.4606 20.5193 18.8652C20.5193 19.2698 20.8472 19.5976 21.2517 19.5976H33.3843C33.7888 19.5976 34.1167 19.2698 34.1167 18.8652C34.1167 18.4606 33.7887 18.1328 33.3842 18.1328Z" fill="#005493"/>
<path d="M15.3799 24.5527H33.3842C33.7888 24.5527 34.1166 24.2249 34.1166 23.8203C34.1166 23.4157 33.7888 23.0879 33.3842 23.0879H15.3799C14.9754 23.0879 14.6475 23.4157 14.6475 23.8203C14.6475 24.2249 14.9754 24.5527 15.3799 24.5527Z" fill="#005493"/>
<path d="M15.3799 29.6562H33.3842C33.7888 29.6562 34.1166 29.3284 34.1166 28.9238C34.1166 28.5192 33.7888 28.1914 33.3842 28.1914H15.3799C14.9754 28.1914 14.6475 28.5192 14.6475 28.9238C14.6475 29.3284 14.9754 29.6562 15.3799 29.6562Z" fill="#005493"/>
<path d="M15.3799 34.7607H33.3842C33.7888 34.7607 34.1166 34.4329 34.1166 34.0283C34.1166 33.6237 33.7888 33.2959 33.3842 33.2959H15.3799C14.9754 33.2959 14.6475 33.6237 14.6475 34.0283C14.6475 34.4329 14.9754 34.7607 15.3799 34.7607Z" fill="#005493"/>
<path d="M15.3799 39.8652H36.9355C37.3401 39.8652 37.6679 39.5374 37.6679 39.1328C37.6679 38.7282 37.3401 38.4004 36.9355 38.4004H15.3799C14.9754 38.4004 14.6475 38.7282 14.6475 39.1328C14.6475 39.5374 14.9754 39.8652 15.3799 39.8652Z" fill="#005493"/>
<path d="M48.8833 14.4989L48.5993 10.8234C48.5316 9.94631 48.0531 9.18539 47.3636 8.72349V7.26191C47.3636 6.05052 46.5421 5.02799 45.4271 4.72048C45.3993 2.11293 43.2705 0 40.6565 0H5.53024C5.52116 0 5.51237 0.00107419 5.50348 0.00136715C5.48141 0.0014648 5.45954 0.000488268 5.43747 0.000878882C2.85736 0.0502916 0.758301 2.19047 0.758301 4.77184V6.33674C0.758301 6.84522 1.17196 7.25888 1.68044 7.25888H8.83738V19.3843C8.83738 19.7889 9.1653 20.1167 9.56978 20.1167C9.97426 20.1167 10.3022 19.7889 10.3022 19.3843V4.85172C10.3022 3.59756 9.80297 2.37181 8.93024 1.4648H40.6565C42.4689 1.4648 43.9448 2.93039 43.9628 4.73874C42.8805 5.06715 42.0905 6.07376 42.0905 7.26191V8.72339C41.4008 9.1853 40.9224 9.94621 40.8548 10.8232L40.5975 14.1516L38.5173 15.5928C37.5969 16.2305 37.0474 17.2797 37.0474 18.3994V28.181L36.2857 29.6457C36.0991 30.0046 36.2389 30.4467 36.5976 30.6333C36.7056 30.6895 36.8211 30.7162 36.9349 30.7162C37.1994 30.7162 37.4549 30.5723 37.5853 30.3214L38.4296 28.6978C38.4839 28.5936 38.5122 28.4776 38.5122 28.36V18.3996C38.5122 17.7603 38.826 17.1612 39.3516 16.7971L40.4638 16.0265C40.1173 21.4071 40.1298 26.8468 40.5042 32.2197C40.5322 32.6232 40.8805 32.9276 41.2857 32.8994C41.6892 32.8714 41.9935 32.5215 41.9654 32.1179C41.8149 29.9578 41.7237 27.7867 41.6912 25.6133H47.7623C47.6929 30.2071 47.3576 34.7975 46.7611 39.3475H42.6917C42.5122 37.978 42.3536 36.5932 42.222 35.2201C42.1833 34.8175 41.8252 34.5225 41.423 34.561C41.0204 34.5996 40.7252 34.9573 40.7638 35.36C40.9176 36.9642 41.106 38.5855 41.3236 40.179L41.8942 44.357C41.9576 44.8218 42.19 45.2294 42.5236 45.5212C42.5336 45.5694 42.5487 45.6171 42.5691 45.664L44.0554 49.0783C44.1717 49.3456 44.4355 49.5185 44.7269 49.5185C45.0183 49.5185 45.2822 49.3456 45.3985 49.0783L46.8848 45.664C46.9052 45.6172 46.9202 45.5694 46.9303 45.5212C47.264 45.2294 47.4963 44.8218 47.5597 44.357L48.1302 40.179C49.2902 31.6856 49.5435 23.0456 48.8833 14.4989ZM8.83738 5.79418H2.2231V4.77184C2.2231 2.98293 3.67765 1.49957 5.4655 1.46549C6.33471 1.44557 7.16955 1.78462 7.80811 2.41097C8.46229 3.05275 8.83747 3.94247 8.83747 4.85172V5.79418H8.83738ZM42.0311 14.6118L42.077 14.0181H47.3769L47.4228 14.6118C47.5753 16.5853 47.6763 18.5639 47.7304 20.5445H41.7231C41.7771 18.5615 41.879 16.5818 42.0311 14.6118ZM42.3152 10.9361C42.368 10.2525 42.9465 9.71702 43.6321 9.71702H45.8219C46.5075 9.71702 47.086 10.2525 47.1389 10.9362L47.2638 12.5533H42.1902L42.3152 10.9361ZM43.5553 8.25222V7.26191C43.5553 6.61583 44.0809 6.09017 44.727 6.09017C45.3731 6.09017 45.8988 6.61583 45.8988 7.26191V8.25222H45.8219H43.6321H43.5553ZM41.6789 24.1485C41.6769 23.4353 41.6811 22.7222 41.6918 22.0093H47.7609C47.7716 22.7222 47.7782 23.4354 47.7761 24.1485H41.6789ZM46.1084 44.1588C46.0799 44.3676 45.8993 44.5251 45.6886 44.5251H43.7653C43.5546 44.5251 43.374 44.3676 43.3455 44.1588L42.8885 40.8122H46.5654L46.1084 44.1588ZM44.3087 45.9899H45.1454L44.727 46.951L44.3087 45.9899Z" fill="#005493"/>
<path d="M41.013 48.5352H23.4389C23.0345 48.5352 22.7065 48.863 22.7065 49.2676C22.7065 49.6721 23.0345 49.9999 23.4389 49.9999H41.0129C41.4175 49.9999 41.7453 49.6721 41.7453 49.2676C41.7453 48.863 41.4175 48.5352 41.013 48.5352Z" fill="#005493"/>
<path d="M20.3176 48.5354H10.6372C10.4525 48.5354 10.3022 48.3852 10.3022 48.2004V22.5058C10.3022 22.1013 9.97429 21.7734 9.5698 21.7734C9.16532 21.7734 8.8374 22.1013 8.8374 22.5058V48.2004C8.8374 49.1928 9.6448 50.0002 10.6372 50.0002H20.3176C20.722 50.0002 21.05 49.6724 21.05 49.2678C21.05 48.8632 20.722 48.5354 20.3176 48.5354Z" fill="#005493"/>
</g>
<defs>
<clipPath id="clip0">
<rect width="50" height="50" fill="white"/>
</clipPath>
</defs>
</svg>
