<svg width="40" height="40" viewBox="0 0 40 40" fill="none" xmlns="http://www.w3.org/2000/svg">
<path d="M39.7005 16.8669L37.6393 12.3242C36.8971 10.709 35.2842 9.67188 33.5065 9.66699H3.95345C1.77083 9.66927 0.00227865 11.4378 0 13.6204V23.5003C0.0016276 24.6963 0.970703 25.6654 2.16667 25.667H5.40007C5.7155 27.2207 7.08138 28.3369 8.66667 28.3369C10.252 28.3369 11.6178 27.2207 11.9333 25.667H28.0667C28.3822 27.2207 29.748 28.3369 31.3333 28.3369C32.9186 28.3369 34.2845 27.2207 34.5999 25.667H38.1468C39.1699 25.666 39.999 24.8369 40 23.8138V18.2471C40.0003 17.7708 39.8981 17.3001 39.7005 16.8669ZM38.2552 16.9105L32 16.387V13.5869L36.4948 13.0251L38.2552 16.9105ZM8.66667 27.0003C7.56217 27.0003 6.66667 26.1048 6.66667 25.0003C6.66667 23.8958 7.56217 23.0003 8.66667 23.0003C9.77116 23.0003 10.6667 23.8958 10.6667 25.0003C10.6667 26.1048 9.77116 27.0003 8.66667 27.0003ZM31.3333 27.0003C30.2288 27.0003 29.3333 26.1048 29.3333 25.0003C29.3333 23.8958 30.2288 23.0003 31.3333 23.0003C32.4378 23.0003 33.3333 23.8958 33.3333 25.0003C33.3333 26.1048 32.4378 27.0003 31.3333 27.0003ZM38.1468 24.3337H34.5999C34.2845 22.7799 32.9186 21.6637 31.3333 21.6637C29.748 21.6637 28.3822 22.7799 28.0667 24.3337H11.9333C11.6178 22.7799 10.252 21.6637 8.66667 21.6637C7.08138 21.6637 5.7155 22.7799 5.40007 24.3337H2.16667C1.70671 24.333 1.33398 23.9603 1.33333 23.5003V13.6204C1.33496 12.1738 2.50684 11.002 3.95345 11.0003H33.5065C34.2819 11.002 35.0303 11.2839 35.6139 11.7936L31.292 12.3337H5.33333C4.96517 12.3337 4.66667 12.6322 4.66667 13.0003V17.0003C4.66667 17.3685 4.96517 17.667 5.33333 17.667H31.3053L38.6667 18.2803V23.8138C38.6663 24.1006 38.4336 24.3333 38.1468 24.3337ZM6 16.3337V13.667H10.6667V16.3337H6ZM12 13.667H17.3333V16.3337H12V13.667ZM18.6667 13.667H23.3333V16.3337H18.6667V13.667ZM24.6667 13.667H30.6667V16.3337H24.6667V13.667Z" fill="#10BC02"/>
</svg>
