<svg width="30" height="30" viewBox="0 0 30 30" fill="none" xmlns="http://www.w3.org/2000/svg">
<g clip-path="url(#clip0)">
<path d="M27.3633 7.08984H22.283L21.6281 3.81545C21.4644 2.99666 20.7395 2.40234 19.9045 2.40234H10.0955C9.26057 2.40234 8.53559 2.99666 8.37188 3.81545L7.71697 7.08984H2.63672C1.18283 7.08984 0 8.27268 0 9.72656V24.9609C0 26.4148 1.18283 27.5977 2.63672 27.5977H27.3633C28.8172 27.5977 30 26.4148 30 24.9609V9.72656C30 8.27268 28.8172 7.08984 27.3633 7.08984ZM10.0955 4.16016H19.9045L20.4904 7.08984H9.50959L10.0955 4.16016ZM28.2422 24.9609C28.2422 25.4456 27.8479 25.8398 27.3633 25.8398H2.63672C2.15209 25.8398 1.75781 25.4456 1.75781 24.9609V9.72656C1.75781 9.24193 2.15209 8.84766 2.63672 8.84766H27.3633C27.8479 8.84766 28.2422 9.24193 28.2422 9.72656V24.9609Z" fill="white"/>
<path d="M15 10.8398C11.4137 10.8398 8.49609 13.7575 8.49609 17.3438C8.49609 20.93 11.4137 23.8477 15 23.8477C18.5863 23.8477 21.5039 20.93 21.5039 17.3438C21.5039 13.7575 18.5863 10.8398 15 10.8398ZM15 22.0898C12.383 22.0898 10.2539 19.9607 10.2539 17.3438C10.2539 14.7268 12.383 12.5977 15 12.5977C17.617 12.5977 19.7461 14.7268 19.7461 17.3438C19.7461 19.9607 17.617 22.0898 15 22.0898Z" fill="white"/>
<path d="M7.5 10.8398H4.6875C4.20211 10.8398 3.80859 11.2334 3.80859 11.7188C3.80859 12.2041 4.20211 12.5977 4.6875 12.5977H7.5C7.98539 12.5977 8.37891 12.2041 8.37891 11.7188C8.37891 11.2334 7.98539 10.8398 7.5 10.8398Z" fill="white"/>
</g>
<defs>
<clipPath id="clip0">
<rect width="30" height="30" fill="white"/>
</clipPath>
</defs>
</svg>
