<svg width="25" height="25" viewBox="0 0 25 25" fill="none" xmlns="http://www.w3.org/2000/svg">
<g clip-path="url(#clip0)">
<path d="M22.3958 4.16699H2.60415C1.16875 4.16699 0 5.33574 0 6.77119V18.2295C0 19.6649 1.16875 20.8337 2.60415 20.8337H22.3958C23.8312 20.8337 24.9999 19.6649 24.9999 18.2295V6.77119C25 5.33574 23.8312 4.16699 22.3958 4.16699ZM23.9583 18.2295C23.9583 19.091 23.2573 19.792 22.3958 19.792H2.60415C1.74268 19.792 1.04165 19.091 1.04165 18.2295V6.77119C1.04165 5.90972 1.74268 5.20869 2.60415 5.20869H22.3958C23.2573 5.20869 23.9583 5.90972 23.9583 6.77119V18.2295H23.9583Z" fill="#212121"/>
<path d="M24.4792 7.29199H0.52085C0.23335 7.29199 0 7.52534 0 7.81284V10.9378C0 11.2253 0.23335 11.4587 0.52085 11.4587H24.4792C24.7667 11.4587 25 11.2253 25 10.9378V7.81284C25 7.52534 24.7667 7.29199 24.4792 7.29199ZM23.9583 10.417H1.04165V8.33364H23.9583V10.417H23.9583Z" fill="#212121"/>
<path d="M9.89585 14.583H3.64585C3.35835 14.583 3.125 14.8164 3.125 15.1039C3.125 15.3914 3.35835 15.6247 3.64585 15.6247H9.89585C10.1834 15.6247 10.4167 15.3913 10.4167 15.1038C10.4167 14.8163 10.1834 14.583 9.89585 14.583Z" fill="#212121"/>
<path d="M9.89585 16.667H3.64585C3.35835 16.667 3.125 16.9003 3.125 17.1878C3.125 17.4753 3.35835 17.7087 3.64585 17.7087H9.89585C10.1834 17.7087 10.4167 17.4753 10.4167 17.1878C10.4167 16.9003 10.1834 16.667 9.89585 16.667Z" fill="#212121"/>
<path d="M20.3124 13.542H19.2708C18.4093 13.542 17.7083 14.243 17.7083 15.1045V16.1461C17.7083 17.0076 18.4093 17.7086 19.2708 17.7086H20.3124C21.1739 17.7086 21.8749 17.0076 21.8749 16.1461V15.1045C21.8749 14.2431 21.1739 13.542 20.3124 13.542ZM20.8333 16.1462C20.8333 16.4337 20.5999 16.667 20.3124 16.667H19.2708C18.9833 16.667 18.7499 16.4337 18.7499 16.1462V15.1045C18.7499 14.817 18.9833 14.5837 19.2708 14.5837H20.3124C20.5999 14.5837 20.8333 14.817 20.8333 15.1045V16.1462Z" fill="#212121"/>
</g>
<defs>
<clipPath id="clip0">
<rect width="25" height="25" fill="white"/>
</clipPath>
</defs>
</svg>
