<svg width="30" height="30" viewBox="0 0 30 30" fill="none" xmlns="http://www.w3.org/2000/svg">
<g clip-path="url(#clip0)">
<path d="M15 29.9991C14.3452 29.9991 13.7588 29.6594 13.4314 29.0906C13.428 29.0846 13.4247 29.0785 13.4213 29.0725L5.98213 15.4561C4.20639 12.2059 4.25731 8.34802 6.11836 5.13638C7.93905 1.99435 11.173 0.0747559 14.7691 0.00139648C14.9227 -0.00176758 15.0772 -0.00176758 15.2307 0.00139648C18.8269 0.0747559 22.0608 1.99435 23.8815 5.13638C25.7426 8.34802 25.7935 12.2058 24.0178 15.4561L16.5786 29.0725C16.5752 29.0785 16.5719 29.0846 16.5684 29.0906C16.2412 29.6594 15.6548 29.9991 15 29.9991ZM14.9999 1.87405C14.9355 1.87405 14.8713 1.8747 14.8072 1.87599C11.8717 1.93587 9.22998 3.50612 7.74059 6.07646C6.21088 8.7164 6.16858 11.8867 7.6275 14.5571L14.9999 28.0512L22.3723 14.5571C23.8313 11.8867 23.789 8.7164 22.2592 6.07646C20.7698 3.50618 18.128 1.93587 15.1925 1.87599C15.1286 1.8747 15.0643 1.87405 14.9999 1.87405Z" fill="#005493"/>
<g clip-path="url(#clip1)">
<path d="M19.3178 8.56748C19.232 7.72932 19.0955 7.07673 18.8794 6.82022C17.9886 5.76553 11.7482 5.68834 11.0397 6.82022C10.8664 7.09752 10.7448 7.74781 10.6633 8.56887C10.4 8.59984 10.1951 8.82145 10.1951 9.09275V10.1195C10.1951 10.3478 10.3397 10.5403 10.5417 10.6154C10.4939 12.2326 10.5327 13.9197 10.6043 14.7588C10.6043 15.4066 11.0395 15.2991 11.0395 15.2991H11.4473V15.9984C11.4473 16.2757 11.7332 16.5001 12.0854 16.5001C12.438 16.5001 12.7239 16.2757 12.7239 15.9984V15.2991H17.4691V15.9984C17.4691 16.2757 17.7547 16.5001 18.1073 16.5001C18.4595 16.5001 18.7454 16.2757 18.7454 15.9984V15.2991H18.8794C18.8794 15.2991 19.3915 15.3694 19.4243 15.0643C19.4243 14.2275 19.477 12.3731 19.4336 10.6226C19.6482 10.5553 19.8049 10.3575 19.8049 10.1195V9.09275C19.8051 8.81498 19.5902 8.58967 19.3178 8.56748ZM12.5637 6.97066H17.3554V7.69558H12.5637V6.97066ZM12.6321 14.4734C12.2559 14.4734 11.9511 14.1684 11.9511 13.7922C11.9511 13.4162 12.2559 13.1114 12.6321 13.1114C13.0083 13.1114 13.3134 13.4162 13.3134 13.7922C13.3134 14.1684 13.0086 14.4734 12.6321 14.4734ZM17.3297 14.4734C16.9537 14.4734 16.6482 14.1684 16.6482 13.7922C16.6482 13.4162 16.9535 13.1114 17.3297 13.1114C17.7059 13.1114 18.0107 13.4162 18.0107 13.7922C18.011 14.1684 17.7059 14.4734 17.3297 14.4734ZM18.1956 11.4924H11.7235V8.09768H18.1956V11.4924Z" fill="#005493"/>
</g>
</g>
<defs>
<clipPath id="clip0">
<rect width="30" height="30" fill="white"/>
</clipPath>
<clipPath id="clip1">
<rect width="10.5" height="10.5" fill="white" transform="translate(9.75 6)"/>
</clipPath>
</defs>
</svg>
