<svg width="30" height="30" viewBox="0 0 30 30" fill="none" xmlns="http://www.w3.org/2000/svg">
<g clip-path="url(#clip0)">
<path d="M15 29.9991C14.3452 29.9991 13.7588 29.6594 13.4315 29.0906C13.428 29.0846 13.4247 29.0785 13.4213 29.0725L5.98213 15.4561C4.20639 12.2059 4.25731 8.34802 6.11836 5.13638C7.93905 1.99435 11.173 0.0747559 14.7691 0.00139648C14.9227 -0.00176758 15.0772 -0.00176758 15.2307 0.00139648C18.8269 0.0747559 22.0608 1.99435 23.8815 5.13638C25.7426 8.34802 25.7935 12.2058 24.0178 15.4561L16.5786 29.0725C16.5752 29.0785 16.5719 29.0846 16.5684 29.0906C16.2412 29.6594 15.6548 29.9991 15 29.9991ZM15 0.999512C14.9356 0.999512 14.5641 0.998223 14.5 0.999512C11.5645 1.05939 8.48939 2.92918 7 5.49951C5.47029 8.13945 5.54107 12.3292 7 14.9995L15 28.9995L22.5 15.4995C23.9589 12.8291 24.5298 8.63945 23 5.99951C21.5106 3.42924 18.4355 1.05939 15.5 0.999512C15.4361 0.998223 15.0644 0.999512 15 0.999512Z" fill="#FFD000"/>
<path d="M15 13.5938C12.6738 13.5938 10.7812 11.7012 10.7812 9.375C10.7812 7.04877 12.6738 5.15625 15 5.15625C17.3262 5.15625 19.2188 7.04877 19.2188 9.375C19.2188 11.7012 17.3263 13.5938 15 13.5938ZM15 6.5C13.3431 6.5 12 7.84315 12 9.5C12 11.1569 13.3431 12.5 15 12.5C16.6569 12.5 18 11.1569 18 9.5C18 7.84315 16.6569 6.5 15 6.5Z" fill="#FFD000"/>
</g>
<defs>
<clipPath id="clip0">
<rect width="30" height="30" fill="white"/>
</clipPath>
</defs>
</svg>
