<svg width="40" height="40" viewBox="0 0 40 40" fill="none" xmlns="http://www.w3.org/2000/svg">
<path d="M7.4999 24.167C5.20153 24.167 3.33325 26.037 3.33325 28.3336C3.33325 30.6303 5.20153 32.5004 7.4999 32.5004C9.79826 32.5004 11.6665 30.6304 11.6665 28.3337C11.6665 26.0371 9.79826 24.167 7.4999 24.167ZM7.4999 30.8337C6.12154 30.8337 4.99989 29.7121 4.99989 28.3337C4.99989 26.9554 6.12154 25.8337 7.4999 25.8337C8.87826 25.8337 9.9999 26.9554 9.9999 28.3337C9.9999 29.7121 8.87826 30.8337 7.4999 30.8337Z" fill="#828282"/>
<path d="M32.4999 24.167C30.2015 24.167 28.3333 26.037 28.3333 28.3336C28.3333 30.6303 30.2015 32.5004 32.4999 32.5004C34.7983 32.5004 36.6665 30.6304 36.6665 28.3337C36.6665 26.0371 34.7983 24.167 32.4999 24.167ZM32.4999 30.8337C31.1215 30.8337 29.9999 29.7121 29.9999 28.3337C29.9999 26.9554 31.1215 25.8337 32.4999 25.8337C33.8783 25.8337 34.9999 26.9554 34.9999 28.3337C34.9999 29.7121 33.8783 30.8337 32.4999 30.8337Z" fill="#828282"/>
<path d="M25.8333 20.833H24.1666C23.7066 20.833 23.3333 21.2064 23.3333 21.6664C23.3333 22.1264 23.7065 22.4996 24.1665 22.4996H25.8332C26.2932 22.4996 26.6665 22.1263 26.6665 21.6663C26.6665 21.2063 26.2933 20.833 25.8333 20.833Z" fill="#828282"/>
<path d="M38.1066 18.0416C36.8966 17.7383 35.7933 17.1133 34.915 16.2333L27.4 8.71992C26.6116 7.93336 25.5666 7.5 24.4534 7.5H4.16664C1.86836 7.5 0 9.37 0 11.6666V25C0 27.2966 1.86836 29.1666 4.16664 29.1666C4.62664 29.1666 5 28.7933 5 28.3333C5 27.8733 4.62664 27.5 4.16664 27.5C2.78828 27.5 1.66664 26.3784 1.66664 25V11.6666C1.66664 10.2883 2.78828 9.16664 4.16664 9.16664H24.4533C25.1099 9.16664 25.7549 9.43328 26.2199 9.9L33.7349 17.4134C34.8266 18.5084 36.1999 19.285 37.7016 19.66C38.0732 19.7534 38.3332 20.085 38.3332 20.4684V25C38.3332 26.3784 37.2116 27.5 35.8332 27.5C35.3732 27.5 34.9998 27.8734 34.9998 28.3334C34.9998 28.7934 35.3732 29.1667 35.8332 29.1667C38.1316 29.1666 40 27.2966 40 25V20.4684C40 19.3184 39.22 18.3216 38.1066 18.0416Z" fill="#828282"/>
<path d="M29.1666 27.5H10.8334C10.3734 27.5 10 27.8734 10 28.3334C10 28.7934 10.3734 29.1667 10.8334 29.1667H29.1667C29.6267 29.1667 30.0001 28.7934 30.0001 28.3334C30.0001 27.8734 29.6266 27.5 29.1666 27.5Z" fill="#828282"/>
<path d="M30.8334 17.4997H21.6666V11.6664C21.6666 11.2064 21.2933 10.833 20.8333 10.833C20.3733 10.833 20 11.2064 20 11.6664V18.333C20 18.793 20.3734 19.1664 20.8334 19.1664H30.8334C31.2934 19.1664 31.6667 18.793 31.6667 18.333C31.6667 17.873 31.2934 17.4997 30.8334 17.4997Z" fill="#828282"/>
<path d="M17.4999 17.4997H13.3332V11.6664C13.3332 11.2064 12.9599 10.833 12.4999 10.833C12.0399 10.833 11.6665 11.2064 11.6665 11.6664V18.333C11.6665 18.793 12.0399 19.1664 12.4999 19.1664H17.4999C17.9599 19.1664 18.3332 18.793 18.3332 18.333C18.3332 17.873 17.9599 17.4997 17.4999 17.4997Z" fill="#828282"/>
<path d="M9.16661 17.4997H4.99997V11.6664C4.99997 11.2064 4.62661 10.833 4.16661 10.833C3.70661 10.833 3.33325 11.2064 3.33325 11.6664V18.333C3.33325 18.793 3.70661 19.1664 4.16661 19.1664H9.16661C9.62661 19.1664 9.99997 18.793 9.99997 18.333C9.99997 17.873 9.62661 17.4997 9.16661 17.4997Z" fill="#828282"/>
</svg>
