<svg width="25" height="25" viewBox="0 0 25 25" fill="none" xmlns="http://www.w3.org/2000/svg">
<g clip-path="url(#clip0)">
<path d="M24.3441 19.2863L19.284 15.9118C18.6419 15.487 17.7811 15.6267 17.3064 16.2329L15.8324 18.1281C15.643 18.3778 15.2987 18.4503 15.0246 18.2981L14.7443 18.1435C13.8148 17.6369 12.6583 17.0062 10.3283 14.6753C7.99819 12.3444 7.3662 11.187 6.85959 10.2593L6.70585 9.97889C6.55153 9.70491 6.62261 9.35911 6.87248 9.16817L8.76633 7.69466C9.3723 7.21988 9.51227 6.35936 9.08797 5.71703L5.71347 0.656937C5.27862 0.00283465 4.40619 -0.193523 3.733 0.211153L1.61705 1.4822C0.952211 1.87306 0.464442 2.50608 0.256026 3.24859C-0.505922 6.02484 0.0672836 10.8162 7.12542 17.8752C12.74 23.4893 16.9198 24.9991 19.7927 24.9991C20.4539 25.002 21.1125 24.9159 21.7508 24.7434C22.4934 24.5352 23.1266 24.0474 23.5172 23.3823L24.7895 21.2676C25.1948 20.5943 24.9985 19.7213 24.3441 19.2863ZM24.0716 20.8402L22.8022 22.9561C22.5218 23.4361 22.0664 23.789 21.5316 23.941C18.9686 24.6446 14.491 24.0618 7.71488 17.2857C0.938786 10.5096 0.356011 6.03236 1.05967 3.46902C1.21179 2.93355 1.56516 2.47761 2.04575 2.1967L4.1617 0.927307C4.45379 0.751552 4.83245 0.836744 5.02114 1.12059L6.85422 3.87267L8.39276 6.18024C8.57701 6.45886 8.51647 6.83229 8.25362 7.03846L6.35932 8.51197C5.78284 8.95278 5.61822 9.75036 5.97315 10.3834L6.12356 10.6567C6.656 11.6332 7.31797 12.848 9.7347 15.2643C12.1514 17.6806 13.3658 18.3426 14.3419 18.875L14.6156 19.0258C15.2486 19.3807 16.0462 19.2161 16.487 18.6397L17.9605 16.7454C18.1667 16.4827 18.54 16.4222 18.8188 16.6062L23.8784 19.9807C24.1624 20.1693 24.2476 20.5481 24.0716 20.8402Z" fill="#FFD000"/>
<path d="M14.166 4.16911C18.0756 4.17346 21.2439 7.34179 21.2483 11.2514C21.2483 11.4815 21.4348 11.668 21.6649 11.668C21.895 11.668 22.0815 11.4815 22.0815 11.2514C22.0766 6.8818 18.5356 3.34072 14.166 3.33594C13.9359 3.33594 13.7494 3.52243 13.7494 3.75253C13.7494 3.98262 13.9359 4.16911 14.166 4.16911Z" fill="#FFD000"/>
<path d="M14.166 6.66814C16.6957 6.67112 18.7457 8.7211 18.7486 11.2508C18.7486 11.4809 18.9352 11.6674 19.1652 11.6674C19.3953 11.6674 19.5818 11.4809 19.5818 11.2508C19.5784 8.26111 17.1556 5.83838 14.166 5.83496C13.9359 5.83496 13.7494 6.02146 13.7494 6.25155C13.7494 6.48164 13.9359 6.66814 14.166 6.66814Z" fill="#FFD000"/>
<path d="M14.166 9.16814C15.3158 9.16951 16.2476 10.1013 16.249 11.2512C16.249 11.4813 16.4356 11.6678 16.6656 11.6678C16.8956 11.6678 17.0822 11.4813 17.0822 11.2512C17.0803 9.64136 15.7758 8.33677 14.166 8.33496C13.9359 8.33496 13.7494 8.52146 13.7494 8.75155C13.7494 8.98164 13.9359 9.16814 14.166 9.16814Z" fill="#FFD000"/>
</g>
<defs>
<clipPath id="clip0">
<rect width="25" height="25" fill="white"/>
</clipPath>
</defs>
</svg>
