<svg width="25" height="25" viewBox="0 0 25 25" fill="none" xmlns="http://www.w3.org/2000/svg">
<g clip-path="url(#clip0)">
<path d="M22.8812 2.61873C20.1412 -0.0622255 15.7609 -0.0616423 13.0215 2.62006L1.53259 14.109C-0.544841 16.2354 -0.505139 19.6433 1.62127 21.7207C3.71269 23.764 7.05285 23.764 9.14427 21.7207L19.5477 11.3173C20.9002 9.96484 20.9002 7.77202 19.5477 6.41956C18.1952 5.0671 16.0024 5.0671 14.6499 6.41956L4.69883 16.3706C4.35174 16.73 4.36171 17.3027 4.72109 17.6498C5.07167 17.9884 5.62745 17.9884 5.97803 17.6498L15.9291 7.69871C16.589 7.06656 17.6364 7.08908 18.2685 7.74896C18.8815 8.38891 18.8815 9.3982 18.2685 10.0381L7.86512 20.4415C6.4597 21.8269 4.19723 21.8107 2.8118 20.4053C1.44036 19.0141 1.44036 16.7794 2.8118 15.3882L14.3007 3.89921C16.3472 1.852 19.6657 1.85141 21.713 3.89783C23.7602 5.94425 23.7608 9.26282 21.7143 11.31L10.2253 22.799C9.84586 23.124 9.80166 23.6951 10.1266 24.0746C10.4516 24.454 11.0227 24.4982 11.4022 24.1733C11.4376 24.1429 11.4706 24.11 11.5009 24.0746L22.9899 12.5856C25.7121 9.80333 25.6635 5.34098 22.8812 2.61873Z" fill="#005493"/>
</g>
<defs>
<clipPath id="clip0">
<rect width="25" height="25" fill="white"/>
</clipPath>
</defs>
</svg>
