<svg width="40" height="40" viewBox="0 0 40 40" fill="none" xmlns="http://www.w3.org/2000/svg">
<path d="M39.7005 16.8667L37.6393 12.324C36.8971 10.7088 35.2842 9.67169 33.5065 9.6668L18 9.66675L17 9.6668H3.95345C1.77083 9.66908 0.00227865 11.4376 0 13.6203V23.5001C0.0016276 24.6961 0.970703 25.6652 2.16667 25.6668H5.40007C5.7155 27.2205 7.08138 28.3367 8.66667 28.3367C10.252 28.3367 11.6178 27.2205 11.9333 25.6668H28.0667C28.3822 27.2205 29.748 28.3367 31.3333 28.3367C32.9186 28.3367 34.2845 27.2205 34.5999 25.6668H38.1468C39.1699 25.6658 39.999 24.8367 40 23.8136V18.2469C40.0003 17.7706 39.8981 17.2999 39.7005 16.8667ZM38.2552 16.9103L32 16.3869V13.5867L36.4948 13.0249L38.2552 16.9103ZM8.66667 27.0001C7.56217 27.0001 6.66667 26.1046 6.66667 25.0001C6.66667 23.8956 7.56217 23.0001 8.66667 23.0001C9.77116 23.0001 10.6667 23.8956 10.6667 25.0001C10.6667 26.1046 9.77116 27.0001 8.66667 27.0001ZM31.3333 27.0001C30.2288 27.0001 29.3333 26.1046 29.3333 25.0001C29.3333 23.8956 30.2288 23.0001 31.3333 23.0001C32.4378 23.0001 33.3333 23.8956 33.3333 25.0001C33.3333 26.1046 32.4378 27.0001 31.3333 27.0001ZM38.1468 24.3335H34.5999C34.2845 22.7798 32.9186 21.6636 31.3333 21.6636C29.748 21.6636 28.3822 22.7798 28.0667 24.3335H11.9333C11.6178 22.7798 10.252 21.6636 8.66667 21.6636C7.08138 21.6636 5.7155 22.7798 5.40007 24.3335H2.16667C1.70671 24.3328 1.33398 23.9601 1.33333 23.5001V13.6203C1.33496 12.1736 2.50684 11.0018 3.95345 11.0001H33.5065C34.2819 11.0018 35.0303 11.2837 35.6139 11.7934L31.292 12.3335H5.33333C4.96517 12.3335 4.66667 12.632 4.66667 13.0001V17.0001C4.66667 17.3683 4.96517 17.6668 5.33333 17.6668H31.3053L38.6667 18.2801V23.8136C38.6663 24.1004 38.4336 24.3331 38.1468 24.3335ZM6 16.3335V13.6668H10.6667V16.3335H6ZM12 13.6668H17.3333V16.3335H12V13.6668ZM18.6667 13.6668H23.3333V16.3335H18.6667V13.6668ZM24.6667 13.6668H30.6667V16.3335H24.6667V13.6668Z" fill="#005493"/>
<path d="M12.5 4.00006L17 9.6668L18 9.66675L17.5 9L15.5 6.5L13.5 4L12.5 4.00006Z" fill="#005493"/>
<path d="M17.5 4.00006L22 9.6668L23 9.66675L22.5 9L20.5 6.5L18.5 4L17.5 4.00006Z" fill="#005493"/>
</svg>
