<svg width="50" height="50" fill="none" xmlns="http://www.w3.org/2000/svg"><path d="M40.133 36.534l-5.67-2.001-.005-.116a2.304 2.304 0 00-1.548-2.047l-2.463-.838v-1.77a10.9 10.9 0 00.33-.199c.91.331 1.713.462 2.413.462 1.142 0 2.01-.343 2.616-.715a4.86 4.86 0 001.342-1.22c3.84-.051 4.251-3.763 4.255-3.801a.732.732 0 00-.709-.804 2.11 2.11 0 01-.835-.253c-.54-.303-.801-.824-.801-1.592V10.91a8.548 8.548 0 00-7.597-8.508c-.288-.032-.534-.162-.657-.347C29.89.69 27.944 0 25.017 0c-3.129 0-6.547 1.145-9.144 3.064-2.233 1.65-4.896 4.622-4.896 9.41v9.166c0 1.687-1.368 1.833-1.636 1.845a.732.732 0 00-.709.803c.004.04.413 3.752 4.255 3.801.25.334.685.817 1.342 1.221.977.6 2.639 1.125 5.029.254.109.067.219.134.33.198v1.77l-2.468.84a2.303 2.303 0 00-1.543 2.045l-.004.103-5.706 2.014a5.438 5.438 0 00-3.622 5.12v7.614a.732.732 0 101.465 0v-7.614c0-.506.097-.995.275-1.448l3.72 3.189c.532.456.838 1.12.838 1.821v4.04a.732.732 0 101.465 0v-4.04a3.86 3.86 0 00-1.35-2.933l-3.884-3.33c.427-.459.964-.82 1.581-1.038l5.209-1.838c.098 2.289.664 4.13 1.176 5.357a3.849 3.849 0 004.51 2.27l3.767-.942 3.769.942a3.848 3.848 0 004.51-2.27 15.729 15.729 0 001.175-5.345l5.174 1.826a3.95 3.95 0 011.596 1.055l-3.864 3.313a3.86 3.86 0 00-1.35 2.933v4.04a.732.732 0 001.465 0v-4.04c0-.7.306-1.365.838-1.821l3.694-3.166c.172.446.266.928.266 1.425v7.614a.732.732 0 101.465 0v-7.614a5.438 5.438 0 00-3.622-5.12zm-.346-11.736c-.277.776-1.02 1.928-2.987 1.82a.731.731 0 00-.684.382c-.05.09-1.141 1.992-3.864 1.46a10.9 10.9 0 003.569-6.642h.548c.44 0 .857-.107 1.224-.296v.118c0 1.95 1.17 2.835 2.194 3.157zm-25.865 2.207a.736.736 0 00-.687-.388c-1.969.108-2.71-1.044-2.987-1.82 1.024-.322 2.194-1.207 2.194-3.157v-.118c.368.189.784.296 1.225.296h.547a10.9 10.9 0 003.57 6.643c-2.724.53-3.814-1.37-3.862-1.456zm1.651-6.702a.732.732 0 10-1.465 0l.001.05h-.442c-.676 0-1.225-.55-1.225-1.224 0-.676.55-1.225 1.225-1.225h.391a2.3 2.3 0 002.298-2.298c0-.822.408-1.51 1.086-2.104l.052.057a.73.73 0 001.156-.89c1.444-.808 3.39-1.44 5.303-2.061 3.295-1.07 6.407-2.08 7.225-4.124a.732.732 0 10-1.36-.544c-.563 1.407-3.488 2.356-6.317 3.275-2.03.659-4.195 1.362-5.847 2.355l-2.088-2.266a.732.732 0 10-1.078.993l1.967 2.135c-.96.841-1.564 1.868-1.564 3.174 0 .46-.373.833-.833.833h-.391c-.441 0-.857.108-1.225.296v-4.26c0-4.178 2.34-6.783 4.302-8.233 2.354-1.74 5.446-2.777 8.273-2.777 2.375 0 3.954.486 4.57 1.405.366.547.99.907 1.71.988a7.085 7.085 0 016.296 7.051v5.826a2.674 2.674 0 00-1.225-.296h-.441v-.833c0-2.435-1.292-3.47-2.66-4.568-.528-.424-1.074-.862-1.627-1.425a.732.732 0 10-1.045 1.026c.613.625 1.22 1.112 1.756 1.542 1.316 1.056 2.11 1.693 2.11 3.425v1.566h.002c0 .248.126.49.355.628.174.104.175.105.964.104h.587a1.226 1.226 0 010 2.45h-.443v-.051a.732.732 0 10-1.464 0c0 5.207-4.237 9.444-9.444 9.444-5.208 0-9.445-4.237-9.445-9.444zm16.37 20.567a2.393 2.393 0 01-2.802 1.413l-3.946-.987a.732.732 0 00-.355 0l-3.946.987a2.392 2.392 0 01-2.802-1.413 14.391 14.391 0 01-1.052-6.367.84.84 0 01.557-.746l1.991-.677v1.3a5.436 5.436 0 005.43 5.43 5.405 5.405 0 002.998-.903.732.732 0 00-.81-1.22 3.944 3.944 0 01-2.188.657 3.97 3.97 0 01-3.965-3.964v-3.914c1.23.482 2.567.746 3.965.746 1.398 0 2.735-.264 3.965-.746v3.914c0 .454-.077.9-.227 1.323a.732.732 0 001.381.49c.206-.582.31-1.192.31-1.813v-1.3l1.987.675a.841.841 0 01.562.748 14.397 14.397 0 01-1.053 6.367z" fill="#005493"/><path d="M27.887 23.703a.732.732 0 00-1.035-.006c-.268.263-.908.571-1.834.571s-1.567-.308-1.835-.572a.732.732 0 00-1.028 1.043c.63.622 1.7.994 2.863.994 1.162 0 2.232-.372 2.863-.994a.732.732 0 00.006-1.036zm-7.567-5.71a.732.732 0 00-.732.733v.783a.732.732 0 101.465 0v-.783a.732.732 0 00-.732-.733zm9.394 0a.732.732 0 00-.732.733v.783a.732.732 0 101.465 0v-.783a.732.732 0 00-.733-.733zm-8.61-2.348h-1.566a.732.732 0 100 1.464h1.566a.732.732 0 100-1.465zm9.393 0h-1.565a.732.732 0 000 1.464h1.565a.732.732 0 100-1.465z" fill="#005493"/></svg>