<svg width="50" height="50" fill="none" xmlns="http://www.w3.org/2000/svg"><g clip-path="url(#clip0)" fill="#005493"><path d="M15.06 29.207c-.21-.074-.425-.152-.64-.233v-3.427c.54.13.86.402.89.427a.725.725 0 00.977-1.07c-.041-.038-.733-.661-1.867-.831v-.7a.725.725 0 00-1.449 0v.755a4.542 4.542 0 00-.328.085c-1.037.312-1.81 1.2-2.021 2.315-.192 1.017.134 1.998.85 2.56.38.297.852.57 1.5.858v4.344c-.56-.041-.948-.178-1.583-.593a.724.724 0 10-.794 1.212c.926.606 1.56.787 2.376.833v.783a.725.725 0 001.45 0v-.84c1.625-.32 2.574-1.66 2.785-2.912.27-1.61-.572-3.01-2.146-3.566zm-2.694-1.26c-.288-.226-.411-.667-.32-1.15.081-.434.367-.955.925-1.165v2.702a4.353 4.353 0 01-.605-.386zm3.41 4.586c-.111.663-.573 1.366-1.356 1.646v-3.662c.052.019.103.038.157.056 1.34.474 1.257 1.62 1.2 1.96z"/><path d="M49.96 28.275a1.683 1.683 0 00-1.068-1.224l-2.074-.762a.725.725 0 00-.5 1.36l2.074.762c.108.04.142.127.153.175a.235.235 0 01-.065.223l-18.511 18.51a.235.235 0 01-.223.066.235.235 0 01-.175-.153l-2.602-7.078a1.688 1.688 0 00-1.003-1.003l-7.078-2.602a.235.235 0 01-.153-.174.235.235 0 01.066-.223l18.51-18.511a.235.235 0 01.224-.065c.048.01.135.044.174.152l2.602 7.078c.171.467.537.832 1.003 1.004l1.8.661a.724.724 0 10.5-1.36l-1.8-.662a.24.24 0 01-.143-.143l-2.602-7.078a1.683 1.683 0 00-1.223-1.068 1.683 1.683 0 00-1.559.456l-.7.7V10.13c0-.932-.759-1.69-1.691-1.69h-7.38a3.494 3.494 0 00-.633-4.065 3.482 3.482 0 00-3.526-.859A3.494 3.494 0 0019.06 1.16a3.494 3.494 0 00-3.299 2.355 3.478 3.478 0 00-3.525.858 3.465 3.465 0 00-1.022 2.467c0 .566.135 1.11.387 1.598h-.608a.725.725 0 000 1.45h5.163v6.856a13.617 13.617 0 00-2.438-.22c-1.51 0-2.931.235-4.291.687H3.98V10.13c0-.133.109-.242.242-.242h3.303a.725.725 0 000-1.449H4.222c-.933 0-1.691.759-1.691 1.69v12.18A13.641 13.641 0 000 30.24c0 2.946.924 5.756 2.672 8.126a.723.723 0 101.166-.86 12.157 12.157 0 01-2.39-7.266c0-6.764 5.504-12.268 12.269-12.268a12.22 12.22 0 0111.906 9.308l-1.227 1.227a10.762 10.762 0 00-3.136-6.016 10.758 10.758 0 00-7.543-3.07c-5.966 0-10.82 4.854-10.82 10.819.001 5.965 4.854 10.819 10.82 10.819a10.81 10.81 0 006.763-2.38l1.552.57a12.291 12.291 0 01-8.315 3.259c-2.8 0-5.539-.972-7.714-2.736a.724.724 0 10-.913 1.126 13.739 13.739 0 008.627 3.059c3.693 0 7.246-1.509 9.823-4.154l1.926.708a.241.241 0 01.143.143l2.602 7.078a1.683 1.683 0 001.59 1.108c.442 0 .87-.174 1.192-.496l18.511-18.51c.41-.41.58-.993.456-1.56zM3.98 20.589V18.66h2.391c-.868.552-1.67 1.2-2.39 1.927zm30.157-10.46v7.083H21.963V9.887h11.933c.133 0 .241.109.241.242zm-9.279-4.73a2.042 2.042 0 010 2.884 1.333 1.333 0 01-.2.155h-3.53c1.052-1.978 1.324-2.946 1.395-3.432a2.036 2.036 0 012.335.392zm-5.8-2.79c1.125 0 2.04.915 2.04 2.04 0 .21-.119 1.097-1.62 3.79h-.838c-1.502-2.692-1.621-3.58-1.621-3.79 0-1.125.915-2.04 2.04-2.04zM13.26 8.283a2.026 2.026 0 01-.598-1.443c0-.544.212-1.057.598-1.442a2.033 2.033 0 012.335-.392c.07.487.343 1.454 1.395 3.432h-3.53a1.325 1.325 0 01-.2-.155zm4.344 1.604h2.91v7.325h-2.519c-.13-.043-.26-.083-.391-.122V9.887zm4.686 9.652a13.54 13.54 0 00-1.23-.878h13.078v.105l-2.805 2.805h-6.997a13.763 13.763 0 00-2.046-2.032zm3.081 3.48h4.513l-3.088 3.088a13.723 13.723 0 00-1.425-3.087zM13.717 39.61c-5.167 0-9.37-4.203-9.37-9.369 0-5.166 4.203-9.37 9.37-9.37 4.973 0 9.142 4.005 9.36 8.957l-5.301 5.3c-.41.41-.58.993-.456 1.56a1.683 1.683 0 001.068 1.223l.457.168a9.354 9.354 0 01-5.128 1.532z"/><path d="M35.525 38.585a.724.724 0 00.67-.999l-4.17-10.206a.724.724 0 10-1.342.549l4.171 10.205c.115.28.386.45.671.45zm-8.613-8.184c-.508.508-.756 1.205-.7 1.963.054.718.38 1.408.916 1.944a3.09 3.09 0 001.944.915c.07.006.141.008.211.008.676 0 1.291-.247 1.751-.707.508-.508.756-1.205.7-1.963a3.093 3.093 0 00-.916-1.944 3.09 3.09 0 00-1.944-.915c-.758-.057-1.455.192-1.962.7zm2.882 1.241c.29.291.467.656.494 1.028.025.33-.074.625-.278.83-.205.204-.5.303-.83.278a1.644 1.644 0 01-1.028-.494 1.643 1.643 0 01-.495-1.028c-.024-.33.075-.625.28-.83a1.01 1.01 0 01.73-.282 1.642 1.642 0 011.127.498zm8.479 4.428c.675 0 1.29-.246 1.75-.706 1.018-1.018.921-2.77-.215-3.907-1.137-1.137-2.89-1.233-3.907-.216-1.017 1.018-.92 2.77.216 3.907a3.09 3.09 0 001.944.915c.071.005.142.008.212.008zm-1.347-3.804c.192-.192.452-.285.732-.285.38 0 .796.172 1.125.5.572.572.669 1.406.216 1.858-.205.205-.5.304-.83.28a1.643 1.643 0 01-1.027-.496c-.572-.571-.669-1.405-.216-1.857z"/></g><defs><clipPath id="clip0"><path fill="#fff" d="M0 0h50v50H0z"/></clipPath></defs></svg>