<svg width="50" height="50" fill="none" xmlns="http://www.w3.org/2000/svg"><g clip-path="url(#clip0)" fill="#005493"><path d="M15.874 8.495h20.722a.732.732 0 100-1.465H15.874c-.863 0-1.565.702-1.565 1.565v5.128c0 .863.702 1.565 1.565 1.565h20.722a.732.732 0 100-1.465H15.874a.1.1 0 01-.1-.1V8.595a.1.1 0 01.1-.1zm-.494 11.103h1.778a.732.732 0 000-1.465H15.38a.732.732 0 100 1.465zm18.004-1.465H21.252a.732.732 0 100 1.465h12.132a.732.732 0 100-1.465zm-18.004 6.42h18.004a.732.732 0 100-1.465H15.38a.732.732 0 100 1.465zm0 5.103h18.004a.732.732 0 100-1.465H15.38a.732.732 0 100 1.465zm0 5.104h18.004a.732.732 0 100-1.464H15.38a.732.732 0 100 1.465zm0 5.105h21.555a.732.732 0 100-1.465H15.38a.732.732 0 100 1.465z"/><path d="M48.883 14.499l-.284-3.676a2.79 2.79 0 00-1.235-2.1V7.262a2.64 2.64 0 00-1.937-2.542A4.777 4.777 0 0040.657 0H5.53l-.027.001h-.066C2.857.05.758 2.19.758 4.77v1.566c0 .508.414.922.922.922h7.157v12.125a.732.732 0 101.465 0V4.852c0-1.254-.499-2.48-1.372-3.387h31.727a3.31 3.31 0 013.306 3.274 2.64 2.64 0 00-1.873 2.523v1.461a2.79 2.79 0 00-1.235 2.1l-.258 3.329-2.08 1.44a3.415 3.415 0 00-1.47 2.807v9.782l-.761 1.465a.732.732 0 001.3.675l.844-1.623a.731.731 0 00.082-.338V18.4c0-.64.314-1.239.84-1.603l1.112-.77a121.38 121.38 0 00.04 16.193.731.731 0 101.461-.102c-.15-2.16-.241-4.331-.274-6.505h6.071c-.07 4.594-.404 9.184-1 13.734h-4.07c-.18-1.369-.338-2.754-.47-4.127a.733.733 0 00-1.458.14c.154 1.604.342 3.226.56 4.819l.57 4.178c.064.465.296.872.63 1.164.01.048.025.096.045.143l1.486 3.414a.732.732 0 001.343 0l1.487-3.414a.733.733 0 00.045-.143c.334-.292.566-.7.63-1.164l.57-4.178a121.162 121.162 0 00.753-25.68zM8.837 5.794H2.223V4.772a3.323 3.323 0 013.242-3.307c.87-.02 1.705.32 2.343.946a3.442 3.442 0 011.03 2.44v.943zm33.194 8.818l.046-.594h5.3l.046.594c.152 1.973.253 3.952.307 5.932h-6.007c.054-1.983.156-3.962.308-5.932zm.284-3.676a1.327 1.327 0 011.317-1.219h2.19c.685 0 1.264.535 1.317 1.22l.125 1.616H42.19l.125-1.617zm1.24-2.684v-.99a1.173 1.173 0 012.343 0v.99h-2.343zM41.68 24.148c-.002-.713.002-1.426.013-2.139h6.069c.01.713.017 1.426.015 2.14H41.68zm4.43 20.01a.425.425 0 01-.42.367h-1.924a.425.425 0 01-.42-.366l-.456-3.347h3.676l-.457 3.347zm-1.8 1.832h.836l-.418.961-.418-.961zm-3.297 2.545H23.439a.732.732 0 100 1.465h17.574a.732.732 0 100-1.465zm-20.695 0h-9.68a.335.335 0 01-.336-.335V22.506a.732.732 0 10-1.465 0V48.2c0 .993.808 1.8 1.8 1.8h9.68a.732.732 0 100-1.465z"/></g><defs><clipPath id="clip0"><path fill="#fff" d="M0 0h50v50H0z"/></clipPath></defs></svg>