<svg width="50" height="50" fill="none" xmlns="http://www.w3.org/2000/svg"><g clip-path="url(#clip0)" fill="#005493"><path d="M50 10.73v28.54a4.171 4.171 0 01-4.167 4.167H4.167A4.171 4.171 0 010 39.272v-12.5a.833.833 0 011.667 0v12.5c0 1.378 1.121 2.5 2.5 2.5h41.666c1.379 0 2.5-1.122 2.5-2.5V10.729c0-1.378-1.121-2.5-2.5-2.5H4.167a2.503 2.503 0 00-2.5 2.5v3.334h42.708a.833.833 0 010 1.666H1.667v5.417h42.708a.833.833 0 010 1.666H.833A.833.833 0 010 21.98V10.73a4.171 4.171 0 014.167-4.166h41.666A4.171 4.171 0 0150 10.729zM7.604 30.624h6.98a.833.833 0 000-1.667h-6.98a.833.833 0 000 1.667zm0 5.208h6.98a.833.833 0 000-1.666h-6.98a.833.833 0 000 1.666z"/><path d="M30.412 37.144c-.456 0-.864-.084-1.224-.252-.36-.176-.652-.4-.876-.672a3.609 3.609 0 01-.552-.996 6.395 6.395 0 01-.312-1.176 8.83 8.83 0 01-.084-1.248c0-.424.028-.832.084-1.224.056-.392.156-.78.3-1.164.152-.392.336-.728.552-1.008.224-.28.516-.508.876-.684.368-.176.78-.264 1.236-.264.568 0 1.056.128 1.464.384.416.248.732.588.948 1.02.224.432.384.892.48 1.38.104.48.156 1 .156 1.56 0 .544-.048 1.056-.144 1.536a5.357 5.357 0 01-.48 1.368 2.57 2.57 0 01-.948 1.056c-.416.256-.908.384-1.476.384zm0-1.368c.304 0 .564-.084.78-.252.216-.176.38-.412.492-.708.112-.296.192-.608.24-.936.056-.336.084-.696.084-1.08 0-.4-.028-.764-.084-1.092a3.833 3.833 0 00-.252-.936 1.552 1.552 0 00-.492-.696 1.214 1.214 0 00-.768-.252c-.304 0-.564.084-.78.252-.216.168-.38.404-.492.708a4.462 4.462 0 00-.24.936 7.485 7.485 0 00-.072 1.08c0 .392.024.756.072 1.092.056.336.14.652.252.948.112.288.276.516.492.684.216.168.472.252.768.252zm6.472-2.988c-.672 0-1.176-.216-1.512-.648-.328-.432-.492-.94-.492-1.524 0-.552.164-1.048.492-1.488.336-.448.84-.672 1.512-.672s1.172.216 1.5.648c.336.432.504.936.504 1.512 0 .56-.164 1.064-.492 1.512-.328.44-.832.66-1.512.66zm.348 4.356h-1.344l5.736-8.688h1.344l-5.736 8.688zm-.972-5.76c.144.184.352.276.624.276s.476-.096.612-.288c.144-.2.216-.452.216-.756 0-.312-.072-.56-.216-.744-.136-.192-.34-.288-.612-.288-.272 0-.48.1-.624.3-.136.192-.204.436-.204.732 0 .32.068.576.204.768zm7.224 5.1c-.328.44-.832.66-1.512.66s-1.184-.216-1.512-.648c-.328-.432-.492-.94-.492-1.524 0-.552.164-1.048.492-1.488.336-.448.84-.672 1.512-.672s1.172.216 1.5.648c.336.424.504.928.504 1.512 0 .568-.164 1.072-.492 1.512zm-2.136-.744c.144.184.352.276.624.276s.476-.096.612-.288c.144-.2.216-.452.216-.756 0-.312-.072-.56-.216-.744-.144-.192-.348-.288-.612-.288-.272 0-.48.096-.624.288-.136.192-.204.44-.204.744 0 .32.068.576.204.768z"/></g><defs><clipPath id="clip0"><path fill="#fff" d="M0 0h50v50H0z"/></clipPath></defs></svg>