<svg width="50" height="50" fill="none" xmlns="http://www.w3.org/2000/svg"><g clip-path="url(#clip0)" fill="#005493"><path d="M46.85 41.85h-7.073a.732.732 0 000 1.465h6.34v.414l-10.664 2.025H14.075L3.41 43.729v-.414h33.648a.732.732 0 100-1.465h-4.725a14.177 14.177 0 005.018-5.494 7.703 7.703 0 002.924.569c4.29 0 7.78-3.49 7.78-7.78s-3.49-7.78-7.78-7.78a7.82 7.82 0 00-1.378.123v-.419c0-.937-.762-1.7-1.7-1.7h-3.464a.732.732 0 100 1.465h3.464c.13 0 .236.106.236.235v1.245h-25.34V21.07c0-.13.106-.235.236-.235H34a.732.732 0 100-1.465H12.329c-.938 0-1.7.763-1.7 1.7v8.846c0 1.105.129 2.2.38 3.264-1.191-.356-2.612-.076-3.908.81a.732.732 0 10.827 1.21c.85-.582 1.741-.81 2.478-.662l-2.668 3.991a.732.732 0 101.218.814l2.669-3.993c.277.411.428.949.435 1.575v.005c.01.968-.328 2.014-.951 2.947a5.758 5.758 0 01-1.252 1.358c-.33.258-.677.465-1.032.616H6.511a1.616 1.616 0 01-.079-.049c-1.22-.814-1.296-2.92-.176-4.795A.732.732 0 005 36.254c-.714 1.195-1.063 2.526-.982 3.748.045.694.227 1.32.526 1.848H2.678a.732.732 0 00-.733.733v1.752c0 .352.25.654.596.72l10.77 2.045v2.167c0 .405.329.733.733.733h21.438a.732.732 0 00.733-.733V47.1l10.771-2.046a.732.732 0 00.596-.72v-1.751a.732.732 0 00-.732-.733zm-7.953-11.935V26.45a3.011 3.011 0 011.378-.334 3.032 3.032 0 013.029 3.029 3.032 3.032 0 01-3.029 3.028 3.005 3.005 0 01-1.499-.399c.08-.611.121-1.232.121-1.86zm-.4 3.357a4.498 4.498 0 006.27-4.127 4.498 4.498 0 00-5.87-4.277v-1.886a6.322 6.322 0 017.693 6.163 6.322 6.322 0 01-6.315 6.315c-.807 0-1.585-.15-2.322-.443.22-.568.4-1.151.545-1.745zm-26.403-9.493h25.339v6.136a12.59 12.59 0 01-3.71 8.96 12.75 12.75 0 01-4.701 2.975h-8.516a12.352 12.352 0 01-.703-.273c.537-.845.742-1.785.565-2.68v-.004l-.001-.004c-.234-1.166-1.057-2.125-2.32-2.7-1.182-.54-2.628-.68-4.07-.394a7.681 7.681 0 00-.39.089 12.658 12.658 0 01-1.493-5.969V23.78zm.233 16.911c.678-1.014 1.087-2.152 1.178-3.254.246-.083.499-.153.758-.204 1.863-.37 3.66.19 4.377 1.258l-4.708.935a.733.733 0 00.286 1.437l4.71-.937c-.094.482-.362.965-.793 1.41l-.003.003a4.41 4.41 0 01-.603.512H11.37a7.4 7.4 0 00.956-1.16zm22.423 7.845H14.776V47.22H34.75v1.316zm-8.08-33.891l-.032.02.032-.02zm-.032.019c-.02.012-.017.01 0 0z"/><path d="M28.255 7.995a4.99 4.99 0 001.555-3.631A4.997 4.997 0 0027.46.113a.732.732 0 10-.78 1.24 3.54 3.54 0 011.665 3.01 3.54 3.54 0 01-1.666 3.012.74.74 0 000 1.24 3.54 3.54 0 011.666 3.011 3.54 3.54 0 01-1.675 3.018l.01-.007a.732.732 0 00.78 1.24 4.997 4.997 0 002.35-4.25 4.99 4.99 0 00-1.555-3.632zm-1.194 6.402c.018-.01.02-.012 0 0zm-.095.06l.044-.028-.044.028zm5.648-7.083a.732.732 0 10-.78 1.24 3.54 3.54 0 011.665 3.011 3.54 3.54 0 01-1.665 3.012.732.732 0 10.78 1.24 4.997 4.997 0 002.35-4.252 4.997 4.997 0 00-2.35-4.25zm-10.731.001a.732.732 0 10-.78 1.24 3.54 3.54 0 011.666 3.011 3.54 3.54 0 01-1.666 3.012.732.732 0 00.78 1.24 4.997 4.997 0 002.35-4.252 4.997 4.997 0 00-2.35-4.25z"/></g><defs><clipPath id="clip0"><path fill="#fff" d="M0 0h50v50H0z"/></clipPath></defs></svg>