<svg width="50" height="50" fill="none" xmlns="http://www.w3.org/2000/svg"><path d="M10.806 24.123L8.72 28.99a.781.781 0 00.625 1.083l4.024.489-6.822 11.562a.781.781 0 00.798 1.172l5.382-.88 1.835 5.13a.782.782 0 00.661.515h.075a.781.781 0 00.672-.385l2.592-4.392-1.346-.794-1.747 2.96-1.493-4.173a.781.781 0 00-.86-.508l-4.375.715 5.947-10.077.553 4.566a.781.781 0 001.083.625l4.866-2.086.413.547-1.936 3.282 1.349.793 1.605-2.722 1.754 2.339a.781.781 0 001.25 0l1.758-2.34 6.648 11.267a.78.78 0 00.673.385h.074a.78.78 0 00.661-.515l1.836-5.13 5.381.877a.782.782 0 00.799-1.172L36.632 30.56l4.025-.488a.78.78 0 00.625-1.084l-2.086-4.866 4.242-3.185a.78.78 0 000-1.25l-4.244-3.186 2.086-4.865a.783.783 0 00-.625-1.084l-5.259-.637-.636-5.259a.782.782 0 00-1.084-.625L28.81 6.119l-3.186-4.244a.81.81 0 00-1.25 0l-3.186 4.244-4.86-2.087a.781.781 0 00-1.085.625l-.638 5.258-5.258.638a.78.78 0 00-.625 1.083l2.086 4.866-4.246 3.185a.782.782 0 000 1.25l4.243 3.186zM41.26 41.484l-4.375-.715a.781.781 0 00-.86.507l-1.494 4.172-6.131-10.39.413-.547 4.866 2.085a.78.78 0 001.084-.625l.55-4.565 5.947 10.078zM12.234 17.383a.782.782 0 00.25-.933l-1.918-4.472 4.832-.585a.78.78 0 00.683-.682l.585-4.832 4.471 1.917a.781.781 0 00.933-.249L25 3.645l2.93 3.902a.781.781 0 00.933.249l4.471-1.917.585 4.832a.782.782 0 00.683.682l4.832.585-1.918 4.472a.781.781 0 00.25.933l3.902 2.93-3.902 2.929a.782.782 0 00-.25.933l1.918 4.472-4.83.585a.782.782 0 00-.684.682l-.586 4.833-4.47-1.918a.781.781 0 00-.938.25L25 36.98l-2.929-3.902a.781.781 0 00-.937-.25l-4.471 1.918-.586-4.833a.781.781 0 00-.683-.682l-4.832-.585 1.918-4.472a.781.781 0 00-.249-.933l-3.906-2.93 3.91-2.93z" fill="#005493"/><path d="M17.819 27.494a2.344 2.344 0 003.314 0L32.18 16.445a2.345 2.345 0 000-3.315 2.401 2.401 0 00-3.314 0L17.82 24.18a2.344 2.344 0 000 3.314zm1.105-2.21l11.048-11.048a.8.8 0 011.105 0 .782.782 0 010 1.104L20.028 26.39a.8.8 0 01-1.104 0 .781.781 0 010-1.105zm8.838-2.209a3.124 3.124 0 104.418 4.418 3.124 3.124 0 00-4.418-4.418zm3.314 3.314a1.562 1.562 0 11-2.209-2.21 1.562 1.562 0 012.21 2.21zm-11.047-7.925a3.125 3.125 0 10-.004-6.25 3.125 3.125 0 00.004 6.25zm-1.106-4.228a1.562 1.562 0 112.21 2.21 1.562 1.562 0 01-2.21-2.21zm-.863 26.807l.792-1.342 1.346.794-.793 1.342-1.345-.794z" fill="#005493"/></svg>