<svg width="40" height="40" fill="none" xmlns="http://www.w3.org/2000/svg"><path d="M39.7 16.867l-2.06-4.543a4.562 4.562 0 00-4.133-2.657H3.953A3.957 3.957 0 000 13.62v9.88a2.17 2.17 0 002.167 2.167H5.4a3.333 3.333 0 006.533 0h16.134a3.333 3.333 0 006.533 0h3.547A1.855 1.855 0 0040 23.814v-5.567a3.32 3.32 0 00-.3-1.38zm-1.445.043L32 16.387v-2.8l4.495-.562 1.76 3.885zM8.667 27a2 2 0 110-4 2 2 0 010 4zm22.666 0a2 2 0 110-4 2 2 0 010 4zm6.814-2.666H34.6a3.333 3.333 0 00-6.533 0H11.933a3.333 3.333 0 00-6.533 0H2.167a.835.835 0 01-.834-.834v-9.88A2.623 2.623 0 013.953 11h29.554a3.214 3.214 0 012.107.794l-4.322.54H5.333a.667.667 0 00-.666.666v4c0 .369.298.667.666.667h25.972l7.362.613v5.534a.52.52 0 01-.52.52zM6 16.334v-2.667h4.667v2.667H6zm6-2.667h5.333v2.667H12v-2.667zm6.667 0h4.666v2.667h-4.666v-2.667zm6 0h6v2.667h-6v-2.667z" fill="#10BC02"/></svg>