<svg width="30" height="30" fill="none" xmlns="http://www.w3.org/2000/svg"><g clip-path="url(#clip0)" fill="#fff"><path d="M27.363 7.09h-5.08l-.655-3.275a1.762 1.762 0 00-1.724-1.413h-9.809c-.834 0-1.56.595-1.723 1.413L7.717 7.09h-5.08A2.64 2.64 0 000 9.727V24.96a2.64 2.64 0 002.637 2.637h24.726A2.64 2.64 0 0030 24.96V9.727a2.64 2.64 0 00-2.637-2.637zM10.095 4.16h9.81l.585 2.93H9.51l.585-2.93zm18.147 20.8a.88.88 0 01-.879.88H2.637a.88.88 0 01-.88-.88V9.728a.88.88 0 01.88-.88h24.726a.88.88 0 01.88.88V24.96z"/><path d="M15 10.84a6.511 6.511 0 00-6.504 6.504A6.511 6.511 0 0015 23.848a6.511 6.511 0 006.504-6.504A6.511 6.511 0 0015 10.84zm0 11.25a4.751 4.751 0 01-4.746-4.746A4.751 4.751 0 0115 12.598a4.751 4.751 0 014.746 4.746A4.751 4.751 0 0115 22.09zM7.5 10.84H4.687a.879.879 0 000 1.758H7.5a.879.879 0 000-1.758z"/></g><defs><clipPath id="clip0"><path fill="#fff" d="M0 0h30v30H0z"/></clipPath></defs></svg>