<svg width="25" height="25" fill="none" xmlns="http://www.w3.org/2000/svg"><g clip-path="url(#clip0)" fill="#212121"><path d="M22.396 4.167H2.604A2.608 2.608 0 000 6.771V18.23a2.608 2.608 0 002.604 2.604h19.792A2.608 2.608 0 0025 18.23V6.77a2.608 2.608 0 00-2.604-2.604zm1.562 14.063c0 .861-.7 1.562-1.562 1.562H2.604a1.564 1.564 0 01-1.562-1.563V6.772c0-.861.7-1.562 1.562-1.562h19.792c.861 0 1.562.7 1.562 1.562V18.23z"/><path d="M24.48 7.292H.52a.521.521 0 00-.52.52v3.126c0 .287.233.52.52.52h23.96a.52.52 0 00.52-.52V7.813a.521.521 0 00-.52-.521zm-.522 3.125H1.042V8.334h22.916v2.083zM9.896 14.583h-6.25a.521.521 0 000 1.042h6.25a.521.521 0 000-1.042zm0 2.084h-6.25a.521.521 0 000 1.042h6.25a.521.521 0 000-1.042zm10.416-3.125h-1.041c-.862 0-1.563.701-1.563 1.563v1.041c0 .862.701 1.563 1.563 1.563h1.041c.862 0 1.563-.701 1.563-1.563v-1.042c0-.86-.701-1.562-1.563-1.562zm.521 2.604a.52.52 0 01-.52.521H19.27a.521.521 0 01-.521-.52v-1.042a.52.52 0 01.52-.521h1.042a.52.52 0 01.521.52v1.042z"/></g><defs><clipPath id="clip0"><path fill="#fff" d="M0 0h25v25H0z"/></clipPath></defs></svg>