<svg width="25" height="25" fill="none" xmlns="http://www.w3.org/2000/svg"><path d="M12.322 12.043c1.654 0 3.087-.594 4.257-1.764 1.17-1.171 1.764-2.603 1.764-4.258 0-1.654-.593-3.086-1.764-4.257C15.41.594 13.976 0 12.322 0c-1.655 0-3.087.593-4.258 1.764C6.894 2.934 6.3 4.367 6.3 6.02c0 1.655.594 3.087 1.764 4.258 1.171 1.17 2.604 1.764 4.258 1.764zM9.1 2.8c.899-.898 1.952-1.335 3.222-1.335s2.323.437 3.221 1.335c.899.898 1.335 1.952 1.335 3.221 0 1.27-.436 2.323-1.335 3.222-.898.898-1.952 1.335-3.221 1.335-1.27 0-2.323-.437-3.222-1.335-.898-.899-1.335-1.952-1.335-3.222 0-1.269.437-2.323 1.335-3.221zm13.758 16.424a14.887 14.887 0 00-.203-1.58 12.45 12.45 0 00-.388-1.588 7.851 7.851 0 00-.653-1.481 5.584 5.584 0 00-.985-1.283 4.341 4.341 0 00-1.414-.889 4.887 4.887 0 00-1.805-.327c-.256 0-.503.105-.98.415-.293.192-.636.413-1.019.658-.327.208-.77.404-1.319.58a5.239 5.239 0 01-1.613.262 5.242 5.242 0 01-1.614-.261c-.547-.177-.99-.373-1.318-.581-.38-.243-.722-.464-1.02-.658-.476-.31-.723-.415-.978-.415-.65 0-1.258.11-1.806.327a4.337 4.337 0 00-1.414.889 5.585 5.585 0 00-.984 1.283 7.861 7.861 0 00-.653 1.481 12.477 12.477 0 00-.389 1.588c-.1.56-.168 1.092-.202 1.58a21.4 21.4 0 00-.05 1.477c0 1.305.415 2.361 1.233 3.14.808.77 1.877 1.16 3.177 1.16h12.037c1.3 0 2.37-.39 3.177-1.16.819-.778 1.233-1.835 1.233-3.14 0-.504-.017-1.001-.05-1.477zm-2.193 3.556c-.534.508-1.242.755-2.167.755H6.461c-.925 0-1.634-.247-2.167-.755-.524-.498-.778-1.178-.778-2.08 0-.468.015-.93.046-1.374.03-.436.092-.914.183-1.423.09-.502.205-.973.342-1.4.13-.41.31-.814.531-1.205a4.14 4.14 0 01.724-.948 2.88 2.88 0 01.94-.585 3.374 3.374 0 011.154-.222c.052.027.143.08.291.176.301.196.648.42 1.032.665.433.276.99.525 1.656.74.68.22 1.375.332 2.064.332.69 0 1.384-.112 2.064-.332.666-.215 1.224-.464 1.657-.74.392-.252.73-.469 1.031-.665.148-.097.24-.149.29-.176.422.011.81.086 1.155.222.373.148.69.345.94.585.27.257.512.576.724.949.222.39.4.795.532 1.204.136.427.251.898.341 1.4.091.51.153.988.183 1.423.031.443.047.905.047 1.375 0 .9-.254 1.58-.778 2.079z" fill="#FFD000"/></svg>