<svg width="30" height="30" fill="none" xmlns="http://www.w3.org/2000/svg"><g clip-path="url(#clip0)"><path d="M15 30c-.655 0-1.241-.34-1.569-.91l-.01-.017-7.439-13.617c-1.776-3.25-1.725-7.108.136-10.32C7.94 1.994 11.173.075 14.77.001c.154-.003.308-.003.462 0 3.596.074 6.83 1.993 8.65 5.135 1.862 3.212 1.913 7.07.137 10.32l-7.44 13.617-.01.018a1.791 1.791 0 01-1.568.908zm0-28.126c-.065 0-.129 0-.193.002-2.935.06-5.577 1.63-7.066 4.2a8.583 8.583 0 00-.113 8.481L15 28.051l7.372-13.494a8.583 8.583 0 00-.113-8.48c-1.49-2.57-4.131-4.141-7.066-4.201A9.55 9.55 0 0015 1.874z" fill="#005493"/><g clip-path="url(#clip1)"><path d="M19.318 8.567c-.086-.838-.223-1.49-.439-1.747-.89-1.054-7.13-1.132-7.84 0-.173.278-.294.928-.376 1.749a.528.528 0 00-.468.524v1.027c0 .228.145.42.347.495-.048 1.618-.01 3.305.062 4.144 0 .648.436.54.436.54h.407v.7c0 .277.286.501.638.501.353 0 .639-.224.639-.502V15.3h4.745v.7c0 .277.286.501.638.501.352 0 .638-.224.638-.502V15.3h.134s.512.07.545-.235c0-.837.053-2.69.01-4.441a.527.527 0 00.37-.503V9.093a.528.528 0 00-.486-.526zm-6.754-1.596h4.791v.725h-4.791V6.97zm.068 7.502a.681.681 0 110-1.362.681.681 0 010 1.362zm4.698 0a.682.682 0 110-1.363.682.682 0 010 1.363zm.866-2.98h-6.473V8.097h6.473v3.394z" fill="#005493"/></g></g><defs><clipPath id="clip0"><path fill="#fff" d="M0 0h30v30H0z"/></clipPath><clipPath id="clip1"><path fill="#fff" transform="translate(9.75 6)" d="M0 0h10.5v10.5H0z"/></clipPath></defs></svg>