<svg width="30" height="30" fill="none" xmlns="http://www.w3.org/2000/svg"><g clip-path="url(#clip0)" fill="#FFD000"><path d="M15 30c-.655 0-1.241-.34-1.569-.91l-.01-.017-7.439-13.617c-1.776-3.25-1.725-7.108.136-10.32C7.94 1.994 11.173.075 14.77.001c.154-.003.308-.003.462 0 3.596.074 6.83 1.993 8.65 5.135 1.862 3.212 1.913 7.07.137 10.32l-7.44 13.617-.01.018a1.791 1.791 0 01-1.568.908zm0-29c-.064 0-.436-.002-.5 0-2.935.06-6.01 1.93-7.5 4.5-1.53 2.64-1.459 6.83 0 9.5l8 14 7.5-13.5c1.459-2.67 2.03-6.86.5-9.5-1.49-2.57-4.564-4.94-7.5-5-.064-.002-.436 0-.5 0z"/><path d="M15 13.594a4.224 4.224 0 01-4.219-4.219A4.224 4.224 0 0115 5.156a4.224 4.224 0 014.219 4.219A4.224 4.224 0 0115 13.594zM15 6.5a3 3 0 100 6 3 3 0 000-6z"/></g><defs><clipPath id="clip0"><path fill="#fff" d="M0 0h30v30H0z"/></clipPath></defs></svg>