<svg width="40" height="40" fill="none" xmlns="http://www.w3.org/2000/svg"><path d="M7.5 24.167a4.171 4.171 0 00-4.167 4.167A4.171 4.171 0 007.5 32.5a4.171 4.171 0 004.166-4.166A4.171 4.171 0 007.5 24.167zm0 6.667a2.503 2.503 0 01-2.5-2.5c0-1.379 1.122-2.5 2.5-2.5s2.5 1.121 2.5 2.5c0 1.378-1.122 2.5-2.5 2.5zm25-6.667a4.171 4.171 0 00-4.167 4.167A4.171 4.171 0 0032.5 32.5a4.171 4.171 0 004.166-4.166 4.171 4.171 0 00-4.166-4.167zm0 6.667a2.503 2.503 0 01-2.5-2.5c0-1.379 1.122-2.5 2.5-2.5s2.5 1.121 2.5 2.5c0 1.378-1.122 2.5-2.5 2.5zm-6.667-10.001h-1.666a.834.834 0 000 1.667h1.666a.834.834 0 000-1.667z" fill="#828282"/><path d="M38.107 18.042a6.867 6.867 0 01-3.192-1.809L27.4 8.72a4.143 4.143 0 00-2.947-1.22H4.167A4.171 4.171 0 000 11.667V25a4.171 4.171 0 004.167 4.167.834.834 0 000-1.667 2.503 2.503 0 01-2.5-2.5V11.667c0-1.379 1.121-2.5 2.5-2.5h20.286a2.51 2.51 0 011.767.733l7.515 7.513a8.516 8.516 0 003.967 2.247.833.833 0 01.631.808V25c0 1.378-1.121 2.5-2.5 2.5a.834.834 0 000 1.667A4.172 4.172 0 0040 25v-4.532a2.5 2.5 0 00-1.893-2.426z" fill="#828282"/><path d="M29.167 27.5H10.833a.834.834 0 000 1.667h18.334a.834.834 0 000-1.667zm1.666-10h-9.166v-5.834a.834.834 0 00-1.667 0v6.667c0 .46.373.833.833.833h10a.834.834 0 000-1.666zm-13.333 0h-4.167v-5.834a.834.834 0 00-1.667 0v6.667c0 .46.374.833.834.833h5a.834.834 0 000-1.666zm-8.333 0H5v-5.834a.834.834 0 00-1.667 0v6.667c0 .46.374.833.834.833h5a.834.834 0 000-1.666z" fill="#828282"/></svg>