<svg width="25" height="25" fill="none" xmlns="http://www.w3.org/2000/svg"><g clip-path="url(#clip0)" fill="#FFD000"><path d="M24.344 19.286l-5.06-3.374a1.477 1.477 0 00-1.978.32l-1.474 1.896a.63.63 0 01-.807.17l-.28-.154c-.93-.507-2.087-1.138-4.417-3.469-2.33-2.33-2.962-3.488-3.468-4.416l-.154-.28a.63.63 0 01.166-.81l1.894-1.474a1.478 1.478 0 00.322-1.978L5.713.657A1.47 1.47 0 003.733.21L1.617 1.482A2.985 2.985 0 00.256 3.25c-.762 2.776-.189 7.567 6.87 14.626C12.74 23.49 16.92 25 19.792 25a7.382 7.382 0 001.958-.256 2.982 2.982 0 001.766-1.36l1.273-2.115a1.47 1.47 0 00-.446-1.982zm-.272 1.554l-1.27 2.116c-.28.48-.736.833-1.27.985-2.563.704-7.041.12-13.817-6.655C.939 10.51.356 6.032 1.06 3.469c.152-.535.505-.991.986-1.272L4.162.927a.637.637 0 01.86.194l1.832 2.752L8.393 6.18a.641.641 0 01-.14.858L6.36 8.512a1.458 1.458 0 00-.386 1.871l.15.274c.533.976 1.195 2.191 3.612 4.607 2.416 2.417 3.63 3.079 4.607 3.611l.274.15c.633.356 1.43.191 1.871-.385l1.474-1.895a.642.642 0 01.858-.139l5.06 3.375a.638.638 0 01.193.86zM14.166 4.17a7.09 7.09 0 017.082 7.081.417.417 0 10.833 0 7.924 7.924 0 00-7.915-7.915.417.417 0 100 .833z"/><path d="M14.166 6.668a4.588 4.588 0 014.583 4.583.417.417 0 00.833 0 5.422 5.422 0 00-5.416-5.416.417.417 0 100 .833z"/><path d="M14.166 9.168a2.086 2.086 0 012.083 2.083.417.417 0 00.833 0 2.92 2.92 0 00-2.916-2.916.417.417 0 100 .833z"/></g><defs><clipPath id="clip0"><path fill="#fff" d="M0 0h25v25H0z"/></clipPath></defs></svg>