<svg width="30" height="30" fill="none" xmlns="http://www.w3.org/2000/svg"><g clip-path="url(#clip0)" fill="#FFD000"><path d="M29.213 23.143l-6.072-4.05a1.772 1.772 0 00-2.373.386l-1.77 2.274a.756.756 0 01-.969.204l-.336-.185c-1.115-.608-2.503-1.365-5.3-4.162-2.795-2.797-3.554-4.186-4.162-5.3l-.184-.335a.757.757 0 01.2-.973l2.273-1.769c.727-.57.895-1.602.385-2.373L6.856.788A1.763 1.763 0 004.479.253L1.94 1.778a3.582 3.582 0 00-1.633 2.12C-.607 7.23.081 12.98 8.55 21.45c6.738 6.737 11.754 8.549 15.201 8.549.793.003 1.584-.1 2.35-.307a3.579 3.579 0 002.12-1.633l1.526-2.538a1.763 1.763 0 00-.534-2.378zm-.327 1.865l-1.523 2.54a2.586 2.586 0 01-1.525 1.181c-3.076.844-8.449.145-16.58-7.986C1.126 12.61.428 7.239 1.27 4.163a2.588 2.588 0 011.184-1.527l2.539-1.523a.765.765 0 011.031.232l2.2 3.302 1.846 2.77a.77.77 0 01-.167 1.029L7.63 10.214a1.75 1.75 0 00-.463 2.246l.18.328c.64 1.172 1.433 2.63 4.333 5.529 2.9 2.9 4.358 3.694 5.53 4.333l.328.18a1.75 1.75 0 002.245-.463l1.768-2.273a.77.77 0 011.03-.167l6.072 4.05c.34.226.443.68.232 1.031zM16.999 5.003a8.508 8.508 0 018.499 8.498.5.5 0 101 0 9.509 9.509 0 00-9.5-9.498.5.5 0 100 1z"/><path d="M16.999 8.003a5.506 5.506 0 015.5 5.499.5.5 0 10.999 0 6.506 6.506 0 00-6.5-6.5.5.5 0 100 1z"/><path d="M16.999 11.002a2.503 2.503 0 012.5 2.5.5.5 0 101 0 3.503 3.503 0 00-3.5-3.5.5.5 0 100 1z"/></g><defs><clipPath id="clip0"><path fill="#fff" d="M0 0h30v30H0z"/></clipPath></defs></svg>