<svg width="25" height="25" fill="none" xmlns="http://www.w3.org/2000/svg"><g clip-path="url(#clip0)"><path d="M22.881 2.619a7.048 7.048 0 00-9.86.001L1.534 14.11a5.383 5.383 0 007.611 7.612l10.404-10.404A3.463 3.463 0 1014.65 6.42l-9.951 9.95a.905.905 0 001.279 1.28l9.951-9.951a1.655 1.655 0 012.34 2.34L7.864 20.441a3.573 3.573 0 01-5.053-5.054L14.3 3.9a5.241 5.241 0 017.413 7.411L10.225 22.799a.905.905 0 101.276 1.276l11.489-11.49a7.048 7.048 0 00-.109-9.966z" fill="#005493"/></g><defs><clipPath id="clip0"><path fill="#fff" d="M0 0h25v25H0z"/></clipPath></defs></svg>